<svg height="512" viewBox="0 0 64 64" width="512" xmlns="http://www.w3.org/2000/svg"><g id="Filled_outline" data-name="Filled outline"><circle cx="44" cy="46" fill="#394d5c" r="11"/><circle cx="15" cy="50" fill="#394d5c" r="7"/><circle cx="15" cy="50" fill="#aabece" r="3"/><circle cx="44" cy="46" fill="#aabece" r="7"/><g fill="#ad6327"><path d="m40 40.172h2v5.657h-2z" transform="matrix(.707 -.707 .707 .707 -18.397 41.586)"/><path d="m44.172 42h5.657v2h-5.657z" transform="matrix(.707 -.707 .707 .707 -16.64 45.828)"/><path d="m46 46.172h2v5.657h-2z" transform="matrix(.707 -.707 .707 .707 -20.882 47.586)"/><path d="m38.172 48h5.657v2h-5.657z" transform="matrix(.707 -.707 .707 .707 -22.64 43.343)"/></g><path d="m7 29h18v12h-18z" fill="#cfdfe8"/><path d="m55 11h-28l1-4h26z" fill="#195c85"/><path d="m55 29h-28l2-18h24z" fill="#87cee9"/><path d="m31 41 8-8h18v-4h-20l-12 12z" fill="#195c85"/><path d="m3 29h4v12h-4z" fill="#195c85"/><path d="m3 41h4v4h-4z" fill="#f9bb4b"/><path d="m23 41h8v4h-8z" fill="#f9bb4b"/><path d="m57 41h4v4h-4z" fill="#f9bb4b"/><path d="m56 28h2v17h-2z" fill="#87cee9"/><path d="m25 29h12l-12 12z" fill="#394d5c"/><path d="m13 23h4v6h-4z" fill="#195c85"/><path d="m10 32h2v5h-2z" fill="#394d5c"/><path d="m14 32h2v5h-2z" fill="#394d5c"/><path d="m18 32h2v5h-2z" fill="#394d5c"/><path d="m12 10-3 3 4 4v6h4v-8z" fill="#32b1cc"/><path d="m44 15h6l1 10h-6z" fill="#f4f4e6"/><path d="m45 25h-14l1-10h12z" fill="#cdeef6"/><circle cx="44" cy="46" fill="#394d5c" r="2"/><path d="m7 50a8 8 0 1 0 8-8 8.009 8.009 0 0 0 -8 8zm8-6a6 6 0 1 1 -6 6 6.006 6.006 0 0 1 6-6z"/><path d="m15 54a4 4 0 1 0 -4-4 4 4 0 0 0 4 4zm0-6a2 2 0 1 1 -2 2 2 2 0 0 1 2-2z"/><path d="m44 54a8 8 0 1 0 -8-8 8.009 8.009 0 0 0 8 8zm-2.7-9.285a2.893 2.893 0 0 0 0 2.57l-2.186 2.186a5.96 5.96 0 0 1 0-6.942zm3.7 1.285a1 1 0 1 1 -1-1 1 1 0 0 1 1 1zm-4.471 4.885 2.186-2.185a2.893 2.893 0 0 0 2.57 0l2.186 2.186a5.96 5.96 0 0 1 -6.942 0zm8.356-1.414-2.185-2.186a2.893 2.893 0 0 0 0-2.57l2.186-2.186a5.96 5.96 0 0 1 0 6.942zm-1.414-8.356-2.186 2.185a2.893 2.893 0 0 0 -2.57 0l-2.186-2.186a5.96 5.96 0 0 1 6.942 0z"/><path d="m61 40h-3v-12h-2.1l-1.783-16h.883a1 1 0 0 0 .97-1.243l-1-4a1 1 0 0 0 -.97-.757h-26a1 1 0 0 0 -.97.757l-1 4a1 1 0 0 0 .97 1.243h.883l-1.778 16h-8.105v-13a1 1 0 0 0 -.293-.707l-5-5a1 1 0 0 0 -1.414 0l-3 3a1 1 0 0 0 0 1.414l3.707 3.707v10.586h-9a1 1 0 0 0 -1 1v16a1 1 0 0 0 1 1h4a1 1 0 0 0 1-1v-3h14v3a1 1 0 0 0 1 1h8a1 1 0 0 0 1-1v-3.586l1.949-1.949a12.03 12.03 0 1 0 3.516-3.516l1.949-1.949h16.586v11a1 1 0 0 0 1 1h4a1 1 0 0 0 1-1v-4a1 1 0 0 0 -1-1zm-7 6a10 10 0 1 1 -10-10 10.011 10.011 0 0 1 10 10zm-25.219-38h24.438l.5 2h-25.438zm1.119 4h22.2l1.779 16h-25.762zm-3.9 18h8.586l-8.586 8.586zm-15.586-17 1.586-1.586 4 4v6.586h-2v-5a1 1 0 0 0 -.293-.707zm3.586 11h2v4h-2zm-10 6h2v10h-2zm2 14h-2v-2h2zm2-4v-10h16v10zm22 4h-6v-2h6zm9-12a1 1 0 0 0 -.707.293l-7.707 7.707h-3.172l10-10h18.586v2zm21 12h-2v-2h2z"/><path d="m10 32h2v5h-2z"/><path d="m14 32h2v5h-2z"/><path d="m18 32h2v5h-2z"/><path d="m51 26a1 1 0 0 0 1-1.1l-1-10a1 1 0 0 0 -1-.9h-18a1 1 0 0 0 -1 .9l-1 10a1 1 0 0 0 1 1.1zm-1.9-10 .8 8h-3.99l-.8-8zm-17 8 .8-8h10.2l.8 8z"/></g></svg>