<svg id="Capa_1" enable-background="new 0 0 510 510" height="512" viewBox="0 0 510 510" width="512" xmlns="http://www.w3.org/2000/svg" xmlns:xlink="http://www.w3.org/1999/xlink"><linearGradient id="lg1"><stop offset="0" stop-color="#7e8595"/><stop offset="1" stop-color="#555a66"/></linearGradient><linearGradient id="SVGID_1_" gradientUnits="userSpaceOnUse" x1="457.969" x2="476.302" xlink:href="#lg1" y1="107.061" y2="124.061"/><linearGradient id="lg2"><stop offset="0" stop-color="#bec3d2" stop-opacity="0"/><stop offset=".221" stop-color="#c5c9d7" stop-opacity=".221"/><stop offset=".5343" stop-color="#d7dae3" stop-opacity=".534"/><stop offset=".9014" stop-color="#f6f6f8" stop-opacity=".901"/><stop offset="1" stop-color="#fff"/></linearGradient><linearGradient id="SVGID_2_" gradientUnits="userSpaceOnUse" x1="470.416" x2="449.416" xlink:href="#lg2" y1="112.454" y2="97.787"/><linearGradient id="lg3"><stop offset="0" stop-color="#ffdaaa"/><stop offset=".4213" stop-color="#ffd8a8"/><stop offset=".6519" stop-color="#fed1a0"/><stop offset=".8359" stop-color="#fdc592"/><stop offset=".9951" stop-color="#fcb47f"/><stop offset="1" stop-color="#fcb37e"/></linearGradient><radialGradient id="SVGID_3_" cx="197.467" cy="122.057" gradientUnits="userSpaceOnUse" r="321.442" xlink:href="#lg3"/><linearGradient id="SVGID_4_" gradientUnits="userSpaceOnUse" x1="306.358" x2="-71.584" y1="269.477" y2="-86.868"><stop offset="0" stop-color="#ffdaaa" stop-opacity="0"/><stop offset="1" stop-color="#fff"/></linearGradient><linearGradient id="SVGID_5_" gradientTransform="matrix(.883 .47 -.47 .883 162.136 -116.639)" gradientUnits="userSpaceOnUse" x1="347.262" x2="287.083" xlink:href="#lg3" y1="298.279" y2="238.1"/><linearGradient id="SVGID_6_" gradientUnits="userSpaceOnUse" x1="132.659" x2="59.98" xlink:href="#lg3" y1="190.397" y2="117.718"/><linearGradient id="SVGID_7_" gradientTransform="matrix(.961 .278 -.278 .961 -86.267 -196.701)" gradientUnits="userSpaceOnUse" x1="259.553" x2="324.44" y1="270.585" y2="335.472"><stop offset="0" stop-color="#ffda45"/><stop offset="1" stop-color="#ffa425"/></linearGradient><linearGradient id="SVGID_8_" gradientTransform="matrix(.961 .278 -.278 .961 -86.267 -196.701)" gradientUnits="userSpaceOnUse" x1="284.309" x2="253.397" y1="297.852" y2="254.027"><stop offset="0" stop-color="#ffda45" stop-opacity="0"/><stop offset="1" stop-color="#fcee21"/></linearGradient><linearGradient id="SVGID_9_" gradientTransform="matrix(.961 .278 -.278 .961 -86.267 -196.701)" gradientUnits="userSpaceOnUse" x1="280.039" x2="348.903" y1="308.531" y2="180.453"><stop offset="0" stop-color="#ffda45" stop-opacity="0"/><stop offset="1" stop-color="#b53759"/></linearGradient><linearGradient id="SVGID_10_" gradientUnits="userSpaceOnUse" x1="382.604" x2="309.925" xlink:href="#lg3" y1="130.276" y2="57.597"/><linearGradient id="SVGID_11_" gradientUnits="userSpaceOnUse" x1="331.976" x2="396.863" y1="79.648" y2="144.536"><stop offset="0" stop-color="#ff7044"/><stop offset="1" stop-color="#f92814"/></linearGradient><linearGradient id="SVGID_12_" gradientUnits="userSpaceOnUse" x1="356.732" x2="325.82" y1="106.915" y2="63.091"><stop offset="0" stop-color="#ff7044" stop-opacity="0"/><stop offset="1" stop-color="#ffa425"/></linearGradient><linearGradient id="SVGID_13_" gradientUnits="userSpaceOnUse" x1="352.461" x2="421.325" y1="117.594" y2="-10.484"><stop offset="0" stop-color="#f92814" stop-opacity="0"/><stop offset="1" stop-color="#c1272d"/></linearGradient><linearGradient id="SVGID_14_" gradientUnits="userSpaceOnUse" x1="248.755" x2="176.076" xlink:href="#lg3" y1="119.898" y2="47.219"/><linearGradient id="SVGID_15_" gradientUnits="userSpaceOnUse" x1="198.127" x2="263.014" y1="69.27" y2="134.157"><stop offset="0" stop-color="#18cffc"/><stop offset="1" stop-color="#4a98f7"/></linearGradient><linearGradient id="SVGID_16_" gradientUnits="userSpaceOnUse" x1="222.883" x2="191.972" y1="96.537" y2="52.713"><stop offset="0" stop-color="#18cffc" stop-opacity="0"/><stop offset="1" stop-color="#65e1dc"/></linearGradient><linearGradient id="SVGID_17_" gradientUnits="userSpaceOnUse" x1="218.612" x2="287.477" y1="107.216" y2="-20.862"><stop offset="0" stop-color="#0469bc" stop-opacity="0"/><stop offset="1" stop-color="#0469bc"/></linearGradient><linearGradient id="SVGID_18_" gradientUnits="userSpaceOnUse" x1="127.577" x2="54.898" xlink:href="#lg3" y1="323.622" y2="250.943"/><linearGradient id="SVGID_19_" gradientUnits="userSpaceOnUse" x1="76.949" x2="141.836" y1="272.994" y2="337.881"><stop offset="0" stop-color="#92f37f"/><stop offset="1" stop-color="#4ab272"/></linearGradient><linearGradient id="SVGID_20_" gradientUnits="userSpaceOnUse" x1="101.705" x2="70.793" y1="300.261" y2="256.436"><stop offset="0" stop-color="#92f37f" stop-opacity="0"/><stop offset="1" stop-color="#ffee83"/></linearGradient><linearGradient id="SVGID_21_" gradientUnits="userSpaceOnUse" x1="97.434" x2="166.299" y1="310.94" y2="182.861"><stop offset="0" stop-color="#4ab272" stop-opacity="0"/><stop offset="1" stop-color="#009245"/></linearGradient><linearGradient id="SVGID_22_" gradientUnits="userSpaceOnUse" x1="344.016" x2="238.372" y1="436.973" y2="331.33"><stop offset="0" stop-color="#fcb37e" stop-opacity="0"/><stop offset="1" stop-color="#ff7044"/></linearGradient><linearGradient id="SVGID_23_" gradientUnits="userSpaceOnUse" x1="246.548" x2="291.355" xlink:href="#lg1" y1="318.44" y2="363.247"/><linearGradient id="SVGID_24_" gradientUnits="userSpaceOnUse" x1="250.689" x2="204.689" xlink:href="#lg2" y1="322.662" y2="277.662"/><linearGradient id="SVGID_25_" gradientTransform="matrix(.707 .707 .707 -.707 75.682 -155.047)" gradientUnits="userSpaceOnUse" x1="426.988" x2="532.322" xlink:href="#lg1" y1="-406.942" y2="-335.275"/><linearGradient id="lg4"><stop offset="0" stop-color="#555a66" stop-opacity="0"/><stop offset="1" stop-color="#555a66"/></linearGradient><linearGradient id="SVGID_26_" gradientTransform="matrix(.707 .707 .707 -.707 75.682 -155.047)" gradientUnits="userSpaceOnUse" x1="468.021" x2="526.522" xlink:href="#lg4" y1="-387.578" y2="-444.078"/><linearGradient id="SVGID_27_" gradientTransform="matrix(.707 .707 .707 -.707 75.682 -155.047)" gradientUnits="userSpaceOnUse" x1="456" x2="477.001" xlink:href="#lg4" y1="-371.594" y2="-310.26"/><linearGradient id="SVGID_28_" gradientTransform="matrix(.707 .707 .707 -.707 75.682 -155.047)" gradientUnits="userSpaceOnUse" x1="476.401" x2="334.066" xlink:href="#lg2" y1="-379.558" y2="-392.558"/><linearGradient id="lg5"><stop offset="0" stop-color="#f9f7fc"/><stop offset="1" stop-color="#f0ddfc"/></linearGradient><linearGradient id="SVGID_29_" gradientUnits="userSpaceOnUse" x1="205.755" x2="220.755" xlink:href="#lg5" y1="356.745" y2="371.745"/><linearGradient id="SVGID_30_" gradientTransform="matrix(-.707 -.707 .707 -.707 1180.594 949.866)" gradientUnits="userSpaceOnUse" x1="1077.886" x2="1113.887" y1="-244.035" y2="-365.536"><stop offset="0" stop-color="#f0ddfc" stop-opacity="0"/><stop offset=".2889" stop-color="#c8b7e0" stop-opacity=".289"/><stop offset=".5915" stop-color="#a595c8" stop-opacity=".592"/><stop offset=".8395" stop-color="#8f81b8" stop-opacity=".84"/><stop offset="1" stop-color="#8779b3"/></linearGradient><linearGradient id="SVGID_31_" gradientTransform="matrix(.707 .707 .707 -.707 67.515 -163.213)" gradientUnits="userSpaceOnUse" x1="477.286" x2="483.675" xlink:href="#lg5" y1="-314.489" y2="-294.41"/><linearGradient id="SVGID_32_" gradientTransform="matrix(-.707 -.707 .707 -.707 1180.594 949.866)" gradientUnits="userSpaceOnUse" x1="1076.199" x2="1113.199" xlink:href="#lg4" y1="-184.439" y2="-256.106"/><linearGradient id="SVGID_33_" gradientTransform="matrix(.707 .707 .707 -.707 67.515 -163.213)" gradientUnits="userSpaceOnUse" x1="477.098" x2="484.356" xlink:href="#lg5" y1="-231.261" y2="-208.45"/><path d="m458.77 145.148h-49.31c51.75-44.76 94.27-78.02 99.9-73.48.05.02.08.06.12.09s.06.07.09.12c3.73 4.631-18.07 34.171-50.8 73.27z" fill="url(#SVGID_1_)"/><path d="m450.74 145.148h-30.86c47.75-43.43 85.67-75.77 89.48-73.48.05.02.08.06.12.09s.06.07.09.12c2.02 3.37-23 33.381-58.83 73.27z" fill="url(#SVGID_2_)"/><path d="m428 229.757c12.876 4.032 26.74 3.559 39.463-.915 26.441-9.318 42.537-34.084 42.537-60.073 0-9.688-2.242-19.551-7.004-28.849-40.295-78.637-132.91-133.65-240.735-133.65-144.84 0-262.261 99.268-262.261 221.718s117.421 221.719 262.261 221.719c77.876 0 147.823-28.705 195.852-74.277 22.174-21.043 14.368-58.099-14.368-68.538-4.793-1.748-9.863-2.715-14.944-2.715-2.047 0-4.104.154-6.14.483-12.455 2.026-25.702-2.078-34.906-12.28-13.195-14.635-13.103-37.282.195-51.825 10.543-11.517 26.268-15.117 40.05-10.798zm-142.084 35.709c0-15.972 12.949-28.921 28.921-28.921s28.91 12.948 28.91 28.921c0 15.972-12.938 28.91-28.91 28.91-15.972.001-28.921-12.938-28.921-28.91z" fill="url(#SVGID_3_)"/><path d="m493.843 144.61c-39.864-77.794-130.761-128.055-231.582-128.055-138.937 0-251.976 94.846-251.976 211.434s113.04 211.434 251.976 211.434c72.106 0 140.911-26.041 188.766-71.448 7.796-7.395 11.138-18.091 8.938-28.622-2.201-10.583-9.575-19.109-19.726-22.791-3.836-1.399-7.672-2.098-11.437-2.098-1.522 0-3.034.113-4.494.349-2.592.422-5.235.638-7.858.638-13.823 0-27.059-5.904-36.336-16.188-16.651-18.461-16.538-47.3.247-65.648 9.256-10.11 22.41-15.91 36.079-15.91 4.978 0 9.904.751 14.635 2.232 4.844 1.522 9.925 2.294 15.098 2.294 6.047 0 12.054-1.039 17.865-3.096 14.543-5.122 26.154-16.27 31.862-30.597 5.687-14.267 4.936-30.28-2.057-43.928zm-179.006 149.767c-15.972 0-28.921-12.938-28.921-28.91s12.949-28.921 28.921-28.921 28.91 12.948 28.91 28.921c0 15.971-12.938 28.91-28.91 28.91z" fill="url(#SVGID_4_)"/><path d="m332.457 232.395c-18.269-9.733-40.968-2.814-50.702 15.455-9.733 18.269-2.805 40.951 15.464 50.684s40.941 2.822 50.674-15.447c9.735-18.268 2.833-40.958-15.436-50.692zm-31.216 58.593c-14.103-7.514-19.439-25.019-11.93-39.113 7.514-14.103 25.019-19.439 39.122-11.925 14.094 7.509 19.43 25.014 11.916 39.117-7.509 14.095-25.014 19.43-39.108 11.921z" fill="url(#SVGID_5_)"/><circle cx="100.776" cy="158.514" fill="url(#SVGID_6_)" r="55.194"/><circle cx="100.776" cy="158.514" fill="url(#SVGID_7_)" r="50.1"/><circle cx="100.776" cy="158.514" fill="url(#SVGID_8_)" r="41.812"/><path d="m134.746 121.68c1.374 7.417 1.092 15.257-1.145 22.997-7.68 26.582-35.455 41.905-62.037 34.225-7.74-2.236-14.523-6.178-20.064-11.297 3.346 18.055 16.528 33.596 35.37 39.04 26.582 7.68 54.357-7.643 62.037-34.225 5.444-18.842-.672-38.281-14.161-50.74z" fill="url(#SVGID_9_)"/><circle cx="350.721" cy="98.393" fill="url(#SVGID_10_)" r="55.194"/><circle cx="350.721" cy="98.393" fill="url(#SVGID_11_)" r="50.1"/><circle cx="350.721" cy="98.393" fill="url(#SVGID_12_)" r="41.812"/><path d="m373.132 53.577c3.379 6.744 5.284 14.354 5.284 22.411 0 27.669-22.43 50.1-50.1 50.1-8.056 0-15.667-1.905-22.411-5.284 8.226 16.417 25.203 27.688 44.816 27.688 27.669 0 50.1-22.43 50.1-50.1 0-19.611-11.272-36.589-27.689-44.815z" fill="url(#SVGID_13_)"/><circle cx="216.872" cy="88.015" fill="url(#SVGID_14_)" r="55.194"/><circle cx="216.872" cy="88.015" fill="url(#SVGID_15_)" r="50.1"/><circle cx="216.872" cy="88.015" fill="url(#SVGID_16_)" r="41.812"/><path d="m239.283 43.199c3.379 6.744 5.284 14.354 5.284 22.411 0 27.669-22.43 50.1-50.1 50.1-8.057 0-15.667-1.905-22.411-5.284 8.226 16.417 25.203 27.689 44.816 27.689 27.669 0 50.1-22.43 50.1-50.1 0-19.612-11.272-36.59-27.689-44.816z" fill="url(#SVGID_17_)"/><circle cx="95.694" cy="291.739" fill="url(#SVGID_18_)" r="55.194"/><circle cx="95.694" cy="291.739" fill="url(#SVGID_19_)" r="50.1"/><circle cx="95.694" cy="291.739" fill="url(#SVGID_20_)" r="41.812"/><path d="m118.105 246.923c3.379 6.744 5.284 14.354 5.284 22.411 0 27.669-22.43 50.1-50.1 50.1-8.057 0-15.667-1.905-22.411-5.284 8.226 16.417 25.203 27.688 44.816 27.688 27.669 0 50.1-22.43 50.1-50.099 0-19.613-11.272-36.59-27.689-44.816z" fill="url(#SVGID_21_)"/><path d="m262.261 449.707c77.876 0 147.823-28.705 195.853-74.276 1.294-1.228 2.477-2.516 3.568-3.845l-124.656-124.656c4.194 5.02 6.721 11.482 6.721 18.536 0 15.972-12.938 28.91-28.91 28.91-7.058 0-13.523-2.529-18.544-6.728l-142.328 142.328c33.013 12.671 69.679 19.731 108.296 19.731z" fill="url(#SVGID_22_)"/><path d="m343.75 265.469c0 4.07-.84 7.95-2.36 11.46-4.52 4.84-8.98 9.6-13.38 14.27-19.43 20.62-37.5 39.33-52.39 54.22-77.6 77.6-90.79 73.31-101.71 62.53-.11-.1-.22-.21-.32-.31s-.21-.21-.31-.32c-10.77-10.92-15.06-24.1 62.54-101.7 14.33-14.32 32.19-31.59 51.9-50.18 6.12-5.79 12.42-11.69 18.85-17.68 2.62-.79 5.39-1.21 8.27-1.21 2.18 0 4.31.24 6.36.71 11.39 2.55 20.23 11.82 22.15 23.44.27 1.55.4 3.14.4 4.77z" fill="url(#SVGID_23_)"/><path d="m343.35 260.698c-11.03 11.57-21.83 22.82-32.13 33.45-15.93 16.45-30.62 31.43-43.03 43.84-77.17 77.16-87.41 76.58-94.28 69.96-.11-.1-.22-.21-.32-.31s-.21-.21-.31-.32c-6.61-6.86-7.2-17.1 69.97-94.27 12.23-12.23 26.97-26.69 43.15-42.36 11.04-10.69 22.75-21.94 34.8-33.43 11.39 2.551 20.23 11.821 22.15 23.44z" fill="url(#SVGID_24_)"/><path d="m80.61 500.942c-3.412-.841-3.587-5.595-.252-6.703 5.623-1.868 10.906-5.038 15.377-9.51 6.265-6.265 9.966-14.119 11.11-22.266.86-6.125-.067-12.331-2.016-18.202-5.907-17.792-1.465-38.264 13.345-52.01 18.844-17.489 48.424-17.516 67.297-.059 17.137 15.851 20.381 36.259 11.249 56.821-3.311 7.455-8.084 14.17-13.733 20.055-38.396 40.008-82.972 36.659-102.377 31.874z" fill="url(#SVGID_25_)"/><path d="m79.139 500.188c-1.889-1.628-1.539-5.032 1.219-5.949 5.623-1.868 10.906-5.038 15.377-9.51 6.265-6.265 9.966-14.119 11.11-22.266.86-6.125-.067-12.331-2.016-18.202-5.907-17.792-1.465-38.264 13.345-52.01 17.351-16.103 43.797-17.389 62.613-3.866 6.835 11.325 8.282 24.824 4.533 39.251-2.116 8.143-5.845 15.778-10.603 22.717-30.742 44.826-73.746 50.739-95.578 49.835z" fill="url(#SVGID_26_)"/><path d="m80.358 494.239c5.623-1.868 10.906-5.038 15.377-9.51 6.265-6.265 9.966-14.119 11.11-22.267.86-6.125-.067-12.331-2.016-18.201-5.907-17.792-1.465-38.264 13.345-52.01 1.165-1.081 2.371-2.096 3.613-3.043 12.868-9.818 31.63-6.391 39.717 7.629.286.496.537.968.744 1.409 6.293 13.357 5.953 28.288-.515 43.32-3.702 8.603-9.201 16.291-15.722 23.014-22.149 22.835-46.149 32.411-66.885 35.599-1.876-1.632-1.521-5.026 1.232-5.94z" fill="url(#SVGID_27_)"/><path d="m180.15 400.946c-.475-.475-.966-.947-1.469-1.413-15.068-13.938-38.658-13.917-53.704.048-11.352 10.536-15.535 26.836-10.657 41.529 2.621 7.895 3.438 15.546 2.428 22.742-1.497 10.659-6.317 20.324-13.942 27.948-.632.632-1.278 1.245-1.937 1.839 19.228.708 48.469-3.951 74.903-31.494 5.156-5.372 9.129-11.156 11.808-17.19 5.132-11.555 8.009-28.57-7.428-44.007-.001 0-.001-.001-.002-.002z" fill="url(#SVGID_28_)"/><path d="m269.224 358.568-46.556-46.556c-33.588 34.436-48.974 55.168-54.468 68.823l32.202 32.202c13.654-5.495 34.386-20.882 68.822-54.469z" fill="url(#SVGID_29_)"/><path d="m255.97 371.23h-82.917c-2.103 3.553-3.7 6.737-4.854 9.605l32.202 32.202c11.804-4.751 28.906-16.904 55.569-41.807z" fill="url(#SVGID_30_)"/><path d="m208.996 406.78-34.54-34.54c-2.112-2.112-5.535-2.112-7.647 0l-2.444 2.444c-2.112 2.112-2.112 5.535 0 7.647l34.54 34.54c2.112 2.112 5.535 2.112 7.647 0l2.445-2.444c2.111-2.112 2.111-5.535-.001-7.647z" fill="url(#SVGID_31_)"/><path d="m227.488 314.022 39.725 39.725c2.718-2.67 5.511-5.436 8.405-8.33 10.795-10.795 22.273-22.612 34.013-34.992h-78.594c-1.204 1.216-2.387 2.415-3.549 3.597z" fill="url(#SVGID_32_)"/><path d="m272.853 352.099-43.717-43.717c-2.112-2.112-5.535-2.112-7.647 0l-2.445 2.444c-2.112 2.112-2.112 5.535 0 7.647l43.717 43.717c2.112 2.112 5.535 2.112 7.647 0l2.444-2.444c2.113-2.112 2.113-5.535.001-7.647z" fill="url(#SVGID_33_)"/></svg>