<svg id="Layer_1" height="512" viewBox="0 0 128 128" width="512" xmlns="http://www.w3.org/2000/svg" data-name="Layer 1"><path d="m93.656 109.443a3.072 3.072 0 0 1 -2.406-3.054v-67.889a17.5 17.5 0 0 0 -17.5-17.5 17.5 17.5 0 0 0 -17.5 17.5v20.722a3.072 3.072 0 0 1 -2.406 3.054 3 3 0 0 1 -3.594-2.943v-20.833a23.5 23.5 0 0 1 23.5-23.5 23.5 23.5 0 0 1 23.5 23.5v68a3 3 0 0 1 -3.594 2.943z" fill="#e1d8fa"/><path d="m48.763 56.333h16.57a0 0 0 0 1 0 0v56.667a0 0 0 0 1 0 0h-43.333a0 0 0 0 1 0 0v-29.9a26.763 26.763 0 0 1 26.763-26.767z" fill="#00d6de"/><path d="m113 113h-37.5l2-9.5h33.5z" fill="#f9502e"/><path d="m56.5 56.333h8.833v56.667h-8.833z" fill="#fcbe00"/><circle cx="60.917" cy="98.25" fill="#4c60dd" r="10"/><path d="m22 83.096h6.07v6.07h-6.07z" fill="#f1f1fb"/><path d="m88.812 95.5h10.875v8h-10.875z" fill="#ffd92d"/><path d="m17.339 97.125h4.661a0 0 0 0 1 0 0v10.5a0 0 0 0 1 0 0h-4.661a2.339 2.339 0 0 1 -2.339-2.339v-5.822a2.339 2.339 0 0 1 2.339-2.339z" fill="#f9502e"/><circle cx="60.917" cy="98.25" fill="#f1f1fb" r="3.667"/><g fill="#00006e"><path d="m64.648 18.739a21.763 21.763 0 0 1 30.852 19.761v50.667a1.75 1.75 0 0 0 3.5 0v-50.667a25.26 25.26 0 0 0 -35.817-22.938 1.749 1.749 0 0 0 1.465 3.177z"/><path d="m59.242 21.762a1.744 1.744 0 0 0 1.079-.372l.357-.275a1.75 1.75 0 1 0 -2.111-2.792l-.405.312a1.75 1.75 0 0 0 1.08 3.127z"/><path d="m90.063 111.25h-.563a1.75 1.75 0 0 0 0 3.5h.563a1.75 1.75 0 0 0 0-3.5z"/><path d="m114.712 112.64-2-9.5a1.749 1.749 0 0 0 -1.712-1.39h-9.563v-6.25a1.75 1.75 0 0 0 -1.75-1.75h-6.687v-55.25a19.25 19.25 0 0 0 -38.5 0v12.167a1.75 1.75 0 0 0 3.5 0v-12.167a15.75 15.75 0 0 1 31.5 0v55.25h-.688a1.751 1.751 0 0 0 -1.75 1.75v6.25h-9.562a1.749 1.749 0 0 0 -1.712 1.39l-2 9.5a1.749 1.749 0 0 0 1.712 2.11h7.167a1.75 1.75 0 0 0 0-3.5h-5.01l1.263-6h30.66l1.263 6h-14.718a1.75 1.75 0 0 0 0 3.5h16.875a1.749 1.749 0 0 0 1.712-2.11zm-24.15-10.89v-4.5h7.375v4.5z"/><path d="m67.083 88.267v-31.934a1.75 1.75 0 0 0 -1.75-1.75h-13.333v-16.083a21.782 21.782 0 0 1 4.966-13.834 1.75 1.75 0 1 0 -2.7-2.228 25.284 25.284 0 0 0 -5.766 16.062v16.09a28.542 28.542 0 0 0 -28.25 28.51v12.275h-2.912a4.093 4.093 0 0 0 -4.088 4.088v5.824a1.75 1.75 0 0 0 3.5 0v-5.824a.589.589 0 0 1 .588-.588h2.912v14.125a1.751 1.751 0 0 0 1.75 1.75h43.333a1.75 1.75 0 0 0 0-3.5h-7.083v-1.567a11.734 11.734 0 0 0 8.833-21.416zm-43.333-3.421h2.57v2.571h-2.57zm31 26.4h-31v-20.329h4.32a1.75 1.75 0 0 0 1.75-1.75v-6.067a1.75 1.75 0 0 0 -1.75-1.75h-4.252a25.041 25.041 0 0 1 24.945-23.267h5.987v25.017a1.75 1.75 0 0 0 3.5 0v-25.017h5.333v28.734a11.734 11.734 0 0 0 -8.833 21.416zm6.167-4.75a8.25 8.25 0 1 1 8.25-8.25 8.259 8.259 0 0 1 -8.25 8.254z"/><path d="m60.917 94.583a3.667 3.667 0 1 0 3.666 3.667 3.672 3.672 0 0 0 -3.666-3.667z"/></g></svg>