<svg height="511pt" viewBox="1 -14 511.999 511" width="511pt" xmlns="http://www.w3.org/2000/svg"><path d="m475.3125 406.820312h-438.628906v-277.476562c0-12.4375 10.082031-22.519531 22.519531-22.519531h393.59375c12.4375 0 22.519531 10.082031 22.519531 22.519531v277.476562zm0 0" fill="#e7e7e7"/><path d="m475.316406 129.347656v277.472656h-27.117187v-277.472656c0-12.441406-10.078125-22.523437-22.519531-22.523437h27.117187c12.429687 0 22.519531 10.078125 22.519531 22.523437zm0 0" fill="#cecece"/><path d="m435.828125 406.820312h-359.65625v-256.148437c0-4.582031 3.714844-8.296875 8.296875-8.296875h343.0625c4.582031 0 8.292969 3.714844 8.292969 8.296875v256.148437zm0 0" fill="#c9f0ff"/><path d="m435.828125 150.671875v256.148437h-26.3125v-256.148437c0-4.578125-3.714844-8.300781-8.300781-8.300781h26.3125c4.585937 0 8.300781 3.722656 8.300781 8.300781zm0 0" fill="#9ae7fd"/><path d="m479.914062 476.375h-447.828124c-13.554688 0-24.542969-10.988281-24.542969-24.542969v-45.011719h496.914062v45.011719c0 13.554688-10.988281 24.542969-24.542969 24.542969zm0 0" fill="#838383"/><path d="m504.457031 406.820312v45.011719c0 13.550781-10.984375 24.542969-24.542969 24.542969h-22.433593c13.550781 0 24.535156-10.992188 24.535156-24.542969v-45.011719zm0 0" fill="#5a5a5a"/><path d="m272.09375 406.820312h-99.578125l11.757813 26.910157c.800781 1.832031 2.609374 3.015625 4.609374 3.015625h134.234376c2 0 3.808593-1.183594 4.609374-3.015625l11.757813-26.910157zm0 0" fill="#acacac"/><path d="m339.484375 406.820312-11.757813 26.90625c-.804687 1.832032-2.605468 3.019532-4.605468 3.019532h-16.222656c.160156-.25.3125-.511719.429687-.792969l12.726563-29.132813zm0 0" fill="#9c9c9c"/><path d="m226.410156 101.222656h-110.417968v-86.183594c0-3.886718 3.152343-7.039062 7.039062-7.039062h96.339844c3.886718 0 7.039062 3.152344 7.039062 7.039062zm0 0" fill="#83e5eb"/><path d="m226.410156 101.222656h-19.570312v-93.222656h12.53125c3.890625 0 7.039062 3.152344 7.039062 7.039062zm0 0" fill="#5cdae2"/><path d="m115.992188 101.570312h110.417968v93.222657h-110.417968zm0 0" fill="#80e0dc"/><path d="m206.839844 101.570312h19.570312v93.222657h-19.570312zm0 0" fill="#00a8b0"/><path d="m304.261719 177.824219-78.078125-78.078125 60.941406-60.941406c2.75-2.75 7.207031-2.75 9.957031 0l68.121094 68.121093c2.75 2.75 2.75 7.207031 0 9.957031zm0 0" fill="#ffe1a8"/><path d="m304.261719 177.824219-13.839844-13.839844 65.917969-65.917969 8.863281 8.859375c2.75 2.75 2.75 7.207031 0 9.957031zm0 0" fill="#ffd98f"/><path d="m225.9375 99.988281 78.078125 78.078125-65.917969 65.917969-78.078125-78.078125zm0 0" fill="#ffd86e"/><path d="m290.175781 164.226562 13.839844 13.839844-65.917969 65.917969-13.839844-13.839844zm0 0" fill="#ffb509"/><path d="m115.992188 235.167969v-4.726563c0-29.183594 23.660156-52.847656 52.847656-52.847656h220.128906c3.886719 0 7.039062 3.152344 7.039062 7.042969v96.335937c0 3.890625-3.152343 7.042969-7.039062 7.042969h-220.128906c-29.1875 0-52.847656-23.660156-52.847656-52.847656zm0 0" fill="#e7e7e7"/><path d="m302.785156 288.015625v-110.421875h86.183594c3.886719 0 7.039062 3.152344 7.039062 7.042969v96.335937c0 3.890625-3.152343 7.042969-7.039062 7.042969zm0 0" fill="#ff9aa9"/><path d="m302.785156 288.015625v-19.574219h93.222656v12.53125c0 3.890625-3.152343 7.042969-7.039062 7.042969zm0 0" fill="#ff7a8e"/><path d="m209.214844 177.59375h93.222656v110.421875h-93.222656zm0 0" fill="#ff6b81"/><path d="m209.214844 268.441406h93.222656v19.574219h-93.222656zm0 0" fill="#ff435f"/><path d="m179.8125 232.804688c0 10.097656-8.1875 18.28125-18.28125 18.28125-10.097656 0-18.28125-8.183594-18.28125-18.28125 0-10.09375 8.183594-18.28125 18.28125-18.28125 10.09375 0 18.28125 8.1875 18.28125 18.28125zm0 0" fill="#838383"/><path d="m504.457031 399.277344h-21.597656v-269.933594c0-16.578125-13.488281-30.0625-30.0625-30.0625h-84.632813l-65.777343-65.78125c-2.746094-2.746094-6.398438-4.257812-10.28125-4.257812-3.886719 0-7.539063 1.511718-10.285157 4.257812l-47.910156 47.910156v-66.371094c0-8.015624-6.519531-14.539062-14.539062-14.539062h-96.335938c-8.019531 0-14.542968 6.523438-14.542968 14.539062v84.242188h-49.289063c-16.574219 0-30.0625 13.484375-30.0625 30.0625v269.933594h-21.597656c-4.164063 0-7.542969 3.378906-7.542969 7.542968v45.011719c0 17.691407 14.394531 32.085938 32.085938 32.085938h447.828124c17.691407 0 32.085938-14.394531 32.085938-32.085938v-45.011719c0-4.164062-3.378906-7.542968-7.542969-7.542968zm-212.351562-354.84375 67.46875 67.472656-55.3125 55.3125-67.472657-67.472656zm18.222656 140.707031h78.136719v95.328125h-78.136719zm-84.390625-74.542969 59.457031 59.453125h-110.621093l-4.144532-4.144531zm68.957031 74.542969v95.328125h-78.136719v-95.328125zm-93.222656 0v95.328125h-32.832031c-24.980469 0-45.304688-20.320312-45.304688-45.300781v-4.726563c0-24.980468 20.324219-45.304687 45.304688-45.304687h32.832031zm-78.179687-169.640625h95.417968v78.222656h-95.417968zm0 93.570312h82.761718l-51.535156 51.53125-20.160156 20.160157c-2.820313 1.953125-5.460938 4.140625-7.90625 6.53125h-3.160156zm45.347656 186.488282h133.597656c.058594 0 .117188-.007813.171875-.007813.058594 0 .117187.007813.175781.007813h86.179688c8.042968 0 14.585937-6.542969 14.585937-14.585938v-96.335937c0-8.042969-6.542969-14.585938-14.585937-14.585938h-66.324219l20.132813-20.132812h84.757812c.414062 0 .75.335937.75.75v82.035156c0 4.167969 3.378906 7.542969 7.542969 7.542969 4.167969 0 7.546875-3.375 7.546875-7.542969v-82.035156c0-8.734375-7.105469-15.835938-15.839844-15.835938h-69.671875l12.644531-12.644531c2.15625-2.15625 3.539063-4.871094 4.039063-7.820312h78.253906c8.253906 0 14.972656 6.71875 14.972656 14.976562v269.933594h-24.398437v-119.394532c0-4.167968-3.378906-7.546874-7.546875-7.546874-4.164063 0-7.542969 3.378906-7.542969 7.546874v119.394532h-344.5625v-248.609375c0-.414063.335938-.75.75-.75h24.023438v78.3125c-.027344.734375-.042969 1.472656-.042969 2.210937v4.726563c0 33.300781 27.089843 60.390625 60.390625 60.390625zm-124.609375-166.214844c0-8.257812 6.714843-14.976562 14.972656-14.976562h49.289063v20.464843h-24.023438c-8.734375 0-15.839844 7.105469-15.839844 15.835938v248.609375h-24.398437zm452.679687 322.488281c0 9.375-7.625 16.996094-16.996094 16.996094h-447.828124c-9.375 0-16.996094-7.625-16.996094-16.996094v-37.464843h152.488281l9.78125 22.382812c2 4.582031 6.523437 7.539062 11.523437 7.539062h15.148438c4.167969 0 7.542969-3.375 7.542969-7.542968 0-4.167969-3.375-7.542969-7.542969-7.542969h-13.503906l-6.484375-14.835937h143.914062l-6.484375 14.835937h-70.835937c-4.167969 0-7.542969 3.375-7.542969 7.542969 0 4.167968 3.375 7.542968 7.542969 7.542968h72.480469c5 0 9.523437-2.960937 11.523437-7.539062l9.78125-22.382812h152.488281zm0 0"/><path d="m135.75 232.804688c0 14.21875 11.5625 25.78125 25.78125 25.78125 14.214844 0 25.78125-11.5625 25.78125-25.78125 0-14.214844-11.566406-25.78125-25.78125-25.78125-14.21875 0-25.78125 11.566406-25.78125 25.78125zm36.5625 0c0 5.945312-4.835938 10.78125-10.78125 10.78125s-10.78125-4.835938-10.78125-10.78125c0-5.941407 4.835938-10.78125 10.78125-10.78125s10.78125 4.835937 10.78125 10.78125zm0 0"/></svg>