<svg id="Layer_1" height="512" viewBox="0 0 128 128" width="512" xmlns="http://www.w3.org/2000/svg" data-name="Layer 1"><path d="m96.433 84.9-24.1-5.4h-16.833l-24.1 5.4a15.913 15.913 0 0 0 -12.642 15.339v12.735h90.314v-12.736a15.914 15.914 0 0 0 -12.639-15.338z" fill="#f1f1fb"/><path d="m39.746 51.134a4.505 4.505 0 0 0 4.506 4.505h3.936l-3.936-9.011a4.505 4.505 0 0 0 -4.506 4.506z" fill="#ffdece"/><path d="m88.409 51.134a4.506 4.506 0 0 0 -4.509-4.506l-2.775 8.622 2.778.389a4.506 4.506 0 0 0 4.506-4.505z" fill="#ffcdbe"/><path d="m72.335 79.5a13.555 13.555 0 0 1 -16.833 0l1-11h14.833z" fill="#ffcdbe"/><path d="m44.252 37.543h39.648a0 0 0 0 1 0 0v14.844a19.826 19.826 0 0 1 -19.823 19.826 19.826 19.826 0 0 1 -19.825-19.826v-14.844a0 0 0 0 1 0 0z" fill="#ffdece"/><circle cx="64.077" cy="23.195" fill="#4c60dd" r="8.195"/><path d="m84.539 38.823a13.6 13.6 0 0 0 -9.264-14.163 14.784 14.784 0 0 0 -4.4-.666h-13.63a13.8 13.8 0 0 0 -13.445 9.655 12.313 12.313 0 0 0 -.4 3.777c.087 2.688.322 8.674.694 9.2 0 0 15.844-1.292 25.3-9.085 0 0 7 7.645 14.508 9.085z" fill="#4c60dd"/><path d="m92.754 81.167-7.166-1.667-1.006 10.057a11.042 11.042 0 0 1 -10.982 9.943h-19.358a11.042 11.042 0 0 1 -10.987-9.943l-1.006-10.057-7.166 1.668v31.806h57.671z" fill="#ffd92d"/><path d="m53.5 105.833h21v7.14h-21z" fill="#00d6de"/><g fill="#00006e"><path d="m96.815 83.19-2.315-.517v-1.506a1.749 1.749 0 0 0 -1.353-1.7l-7.167-1.669a1.75 1.75 0 0 0 -2.138 1.53l-.094.939-4.948-1.113a1.75 1.75 0 0 0 -.766 3.416l5.365 1.2-.561 5.612a9.263 9.263 0 0 1 -9.238 8.368h-19.358a9.262 9.262 0 0 1 -9.242-8.366l-1.006-10.06a1.75 1.75 0 0 0 -2.138-1.53l-7.167 1.669a1.75 1.75 0 0 0 -1.353 1.7v1.506l-2.317.519a17.6 17.6 0 0 0 -14 17.046v12.736a1.75 1.75 0 0 0 3.5 0v-12.732a14.115 14.115 0 0 1 11.268-13.632l1.546-.346v26.714a1.75 1.75 0 1 0 3.5 0v-30.417l3.874-.9.807 8.077a12.752 12.752 0 0 0 12.728 11.516h19.358a12.751 12.751 0 0 0 12.723-11.519l.808-8.077 3.873.9v11.279a1.75 1.75 0 0 0 3.5 0v-7.573l1.54.344a14.119 14.119 0 0 1 11.282 13.634v12.736a1.75 1.75 0 1 0 3.5 0v-12.736a17.6 17.6 0 0 0 -14.011-17.048z"/><path d="m43.088 57.3a21.626 21.626 0 0 0 11.369 14.37l-.582 6.4-4.5 1.009a1.75 1.75 0 0 0 .381 3.458 1.815 1.815 0 0 0 .385-.042l4.975-1.116a15.2 15.2 0 0 0 18.306-.509 1.748 1.748 0 0 0 .656-1.529l-.685-7.522a21.63 21.63 0 0 0 11.68-14.542 6.253 6.253 0 0 0 .705-12.11l.5-6.2a15.405 15.405 0 0 0 -10.478-15.978 16.407 16.407 0 0 0 -1.807-.44 9.932 9.932 0 0 0 -19.823-.018 16.246 16.246 0 0 0 -3.045.886 1.75 1.75 0 1 0 1.3 3.248 12.894 12.894 0 0 1 4.821-.921h13.627a12.975 12.975 0 0 1 3.88.587 11.88 11.88 0 0 1 8.047 12.349l-.636 7.805v.071s-.007.047-.007.072v5.759a18.076 18.076 0 0 1 -36.152 0v-4.21c4.267-.556 15.306-2.491 23.241-8.3a40.235 40.235 0 0 0 8.029 6.062 1.75 1.75 0 0 0 1.7-3.058 37.875 37.875 0 0 1 -8.287-6.521 1.753 1.753 0 0 0 -2.4-.168c-7.213 5.946-18.593 7.953-22.745 8.508-.119-1.27-.263-3.56-.385-7.331a10.524 10.524 0 0 1 .335-3.24 1.75 1.75 0 0 0 -3.366-.959 13.929 13.929 0 0 0 -.467 4.312c.129 3.977.271 6.318.419 7.739a6.247 6.247 0 0 0 1.009 12.079zm20.989-40.55a6.45 6.45 0 0 1 6.367 5.494h-12.733a6.449 6.449 0 0 1 6.366-5.494zm22.582 34.384a2.738 2.738 0 0 1 -1.052 2.148c.013-.3.046-.593.046-.895v-3.364a2.74 2.74 0 0 1 1.006 2.111zm-16.659 21.983.5 5.555a11.75 11.75 0 0 1 -13.168 0l.513-5.635a21.281 21.281 0 0 0 12.15.08zm-27.5-24.217v3.491c0 .347.036.685.053 1.028a2.745 2.745 0 0 1 -.053-4.519z"/><path d="m46.734 30.235a1.747 1.747 0 0 0 1.286-.562c.085-.093.173-.184.261-.273a1.749 1.749 0 0 0 -2.48-2.468c-.12.12-.238.242-.352.366a1.749 1.749 0 0 0 1.285 2.937z"/><path d="m92.754 97.208a1.75 1.75 0 0 0 -1.754 1.75v.667a1.75 1.75 0 0 0 3.5 0v-.667a1.749 1.749 0 0 0 -1.746-1.75z"/><path d="m92.754 104.083a1.75 1.75 0 0 0 -1.75 1.75v7.141a1.75 1.75 0 0 0 3.5 0v-7.141a1.749 1.749 0 0 0 -1.75-1.75z"/><path d="m74.5 104.083h-21a1.75 1.75 0 0 0 -1.75 1.75v7.141a1.75 1.75 0 0 0 3.5 0v-5.391h17.5v5.391a1.75 1.75 0 0 0 3.5 0v-7.141a1.75 1.75 0 0 0 -1.75-1.75z"/></g></svg>