<?xml version="1.0"?>
<svg xmlns="http://www.w3.org/2000/svg" viewBox="0 0 64 64" width="512" height="512"><g id="Engineer-2" data-name="Engineer"><path d="M33.37,25a13.361,13.361,0,0,1-.79,1.92l3.98,3.98L30.9,36.56l-3.98-3.98a13.361,13.361,0,0,1-1.92.79V39H17V33.37a13.361,13.361,0,0,1-1.92-.79L11.1,36.56,5.44,30.9l3.98-3.98A13.361,13.361,0,0,1,8.63,25H3V17H8.63a13.361,13.361,0,0,1,.79-1.92L5.44,11.1,11.1,5.44l3.98,3.98A13.361,13.361,0,0,1,17,8.63V3h8V8.63a13.361,13.361,0,0,1,1.92.79L30.9,5.44l5.66,5.66-3.98,3.98A13.361,13.361,0,0,1,33.37,17H39v8Z" style="fill:#ffb655"/><path d="M42,55a4,4,0,0,0,4-4V48.162a9.966,9.966,0,0,1-8,0V51A4,4,0,0,0,42,55Z" style="fill:#ff9478"/><path d="M46,51a4,4,0,0,1-8,0H29V61H55V51Z" style="fill:#ff5023"/><path d="M56,31H55V30A13.015,13.015,0,0,0,45,17.35V17a2,2,0,0,0-2-2H41a2,2,0,0,0-2,2v.35A13,13,0,0,0,29,30v1H28a2,2,0,0,0,0,4H56a2,2,0,0,0,0-4Z" style="fill:#ffcd00"/><path d="M29,35v1a3,3,0,0,0,3,3V35Z" style="fill:#ffb655"/><path d="M52,39a3,3,0,0,0,3-3V35H52Z" style="fill:#ffb655"/><path d="M46,48.162v0A10,10,0,0,0,52,39V35H32v4a10,10,0,0,0,6,9.162v0a9.966,9.966,0,0,0,8,0Z" style="fill:#ffbcab"/><path d="M55,51V61h6V57A6,6,0,0,0,55,51Z" style="fill:#d1d3d4"/><path d="M23,57v4h6V51A6,6,0,0,0,23,57Z" style="fill:#d1d3d4"/><circle cx="21" cy="21" r="7" style="fill:#df2a47"/><circle cx="21" cy="21" r="5" style="fill:#ff3051"/><path d="M33,20.634A12.951,12.951,0,0,0,29,30v1h-.893a2.075,2.075,0,0,0-2.08,1.664A2,2,0,0,0,28,35H55.858a2.112,2.112,0,0,0,2.1-1.59A1.951,1.951,0,0,0,57.723,32H37a4,4,0,0,1-4-4Z" style="fill:#ebbf00"/><path d="M33,31h6v1a1,1,0,0,0,1,1h4a1,1,0,0,0,1-1V31h7a1,1,0,0,0,0-2H44a1,1,0,0,0-1,1v1H41V30a1,1,0,0,0-1-1H33a1,1,0,0,0,0,2Z"/><path d="M55,50H47V48.786a11.007,11.007,0,0,0,5.956-8.914A4,4,0,0,0,56,36a3,3,0,0,0,0-6A14,14,0,0,0,45.957,16.575,3,3,0,0,0,43,14H41a3,3,0,0,0-2.958,2.581A13.927,13.927,0,0,0,28,30a3,3,0,0,0,0,6,4,4,0,0,0,3.044,3.872A11.007,11.007,0,0,0,37,48.786V50H29a7.008,7.008,0,0,0-7,7v4a1,1,0,0,0,1,1H61a1,1,0,0,0,1-1V57A7.008,7.008,0,0,0,55,50ZM53,37.731V36h1A2,2,0,0,1,53,37.731ZM27,33a1,1,0,0,1,1-1,1,1,0,0,0,2,0V30a11.937,11.937,0,0,1,8-11.31V25a1,1,0,0,0,2,0V17a1,1,0,0,1,1-1h2a1,1,0,0,1,1,1v8a1,1,0,0,0,2,0V18.7A11.955,11.955,0,0,1,54,30v2a1,1,0,0,0,2,0,1,1,0,0,1,0,2H28A1,1,0,0,1,27,33Zm3,3h1v1.731A2,2,0,0,1,30,36Zm3,3V36H51v3a9,9,0,0,1-18,0Zm9,11a10.966,10.966,0,0,0,3-.426V51a3,3,0,0,1-6,0V49.574A10.966,10.966,0,0,0,42,50ZM24,57a5.008,5.008,0,0,1,4-4.9V60H24Zm6-5h7.1a5,5,0,0,0,9.8,0H54v8H30Zm30,8H56V52.1A5.008,5.008,0,0,1,60,57Z"/><path d="M21,29a8,8,0,1,1,8-8A8.009,8.009,0,0,1,21,29Zm0-14a6,6,0,1,0,6,6A6.006,6.006,0,0,0,21,15Z"/><path d="M25,40H17a1,1,0,0,1-1-1V34.079c-.235-.09-.472-.187-.711-.294l-3.482,3.482a1,1,0,0,1-1.414,0l-5.66-5.66a1,1,0,0,1,0-1.414l3.482-3.482c-.107-.239-.2-.476-.294-.711H3a1,1,0,0,1-1-1V17a1,1,0,0,1,1-1H7.921c.09-.235.187-.472.294-.711L4.733,11.807a1,1,0,0,1,0-1.414l5.66-5.66a1,1,0,0,1,1.414,0l3.482,3.482c.239-.107.476-.2.711-.294V3a1,1,0,0,1,1-1h8a1,1,0,0,1,1,1V7.921c.235.09.472.187.711.294l3.482-3.482a1,1,0,0,1,1.414,0l5.66,5.66a1,1,0,0,1,0,1.414l-3.482,3.482a13.394,13.394,0,0,1,.538,1.408,1,1,0,0,1-1.906.606,12.323,12.323,0,0,0-.731-1.776,1,1,0,0,1,.187-1.154L35.146,11.1,30.9,6.854l-3.273,3.273a1,1,0,0,1-1.154.187A12.323,12.323,0,0,0,24.7,9.583,1,1,0,0,1,24,8.63V4H18V8.63a1,1,0,0,1-.7.953,12.323,12.323,0,0,0-1.776.731,1,1,0,0,1-1.154-.187L11.1,6.854,6.854,11.1l3.273,3.273a1,1,0,0,1,.187,1.154A12.323,12.323,0,0,0,9.583,17.3a1,1,0,0,1-.953.7H4v6H8.63a1,1,0,0,1,.953.7,12.323,12.323,0,0,0,.731,1.776,1,1,0,0,1-.187,1.154L6.854,30.9,11.1,35.146l3.273-3.273a1,1,0,0,1,1.154-.187,12.323,12.323,0,0,0,1.776.731,1,1,0,0,1,.7.953V38h6V37a1,1,0,0,1,2,0v2A1,1,0,0,1,25,40Z"/></g></svg>
