<svg id="Capa_1" enable-background="new 0 0 512 512" height="512" viewBox="0 0 512 512" width="512" xmlns="http://www.w3.org/2000/svg"><path d="m486.056 504.506h-460.111c-6.716 0-12.161-5.444-12.161-12.161v-306.545h472.271c6.716 0 12.161 5.444 12.161 12.161v294.384c0 6.716-5.444 12.161-12.16 12.161z" fill="#fba72d"/><path d="m486.056 185.8h-48.642c6.716 0 12.161 5.444 12.161 12.161v294.384c0 6.716-5.444 12.161-12.161 12.161h48.642c6.716 0 12.161-5.444 12.161-12.161v-294.384c-.001-6.716-5.445-12.161-12.161-12.161z" fill="#fa9a0f"/><path d="m68.98 363.631h176.161" fill="#2d56a1"/><path d="m68.98 412.273h176.161" fill="#2d56a1"/><path d="m470.499 87.113-365.161 97.844-14.148-81.118 358.082-95.947c6.487-1.738 13.155 2.112 14.894 8.599l14.932 55.728c1.738 6.487-2.112 13.155-8.599 14.894z" fill="#e5e2e6"/><path d="m449.246 7.899-46.985 12.589c6.487-1.738 13.155 2.111 14.894 8.599l14.932 55.728c1.738 6.487-2.111 13.155-8.598 14.893l46.984-12.589c6.487-1.738 10.337-8.407 8.599-14.894l-14.932-55.728c-1.739-6.487-8.407-10.337-14.894-8.598z" fill="#d6d1d7"/><path d="m106.112 184.749 123.876-33.192-102.127-57.544-28.971 7.763z" fill="#3567c3"/><path d="m247.813 61.872 102.127 57.544 121.562-32.572c.722-.193 1.405-.457 2.057-.765l-101.87-57.399z" fill="#3567c3"/><path d="m425.111 58.781 6.976 26.034c1.738 6.487-2.111 13.155-8.598 14.893l46.984-12.589c1.02-.273 1.965-.68 2.843-1.177z" fill="#2d56a1"/><path d="m498.216 267.816h-484.432v-82.016h472.271c6.716 0 12.161 5.444 12.161 12.161z" fill="#3567c3"/><path d="m486.056 185.8h-48.642c6.716 0 12.161 5.444 12.161 12.161v69.855h48.642v-69.855c-.001-6.716-5.445-12.161-12.161-12.161z" fill="#2d56a1"/><path d="m359.18 185.8-83.753 82.015h128.246l83.681-81.944c-.427-.045-.859-.071-1.297-.071z" fill="#e5e2e6"/><path d="m449.574 197.961v24.905l37.779-36.995s0 0-.001 0c-.426-.045-.858-.071-1.297-.071h-48.642c6.717 0 12.161 5.445 12.161 12.161z" fill="#d6d1d7"/><path d="m20.565 267.816h130.679l83.753-82.016h-130.678z" fill="#e5e2e6"/><path d="m94.59 99.488h-68.645c-6.716 0-12.161 5.444-12.161 12.161v156.167h80.806c6.716 0 12.161-5.444 12.161-12.161v-144.006c0-6.716-5.445-12.161-12.161-12.161z" fill="#b7afb9"/><path d="m94.59 99.488h-38.83c6.716 0 12.161 5.444 12.161 12.161v144.006c0 6.716-5.444 12.161-12.161 12.161h38.83c6.716 0 12.161-5.444 12.161-12.161v-144.006c0-6.716-5.445-12.161-12.161-12.161z" fill="#a79fa9"/><circle cx="60.268" cy="183.652" fill="#3567c3" r="24.269"/><path d="m60.268 159.383c-3.453 0-6.734.726-9.708 2.025 8.57 3.746 14.561 12.293 14.561 22.244s-5.991 18.499-14.561 22.244c2.973 1.299 6.255 2.025 9.708 2.025 13.403 0 24.269-10.866 24.269-24.269 0-13.404-10.866-24.269-24.269-24.269z" fill="#2d56a1"/><path d="m486.056 178.307h-76.897c-4.139 0-7.494 3.355-7.494 7.494s3.355 7.494 7.494 7.494h59.903l-68.447 67.027h-106.825l68.448-67.027h11.949c4.139 0 7.494-3.355 7.494-7.494s-3.355-7.494-7.494-7.494h-215.077l313.329-83.955c2.323-.623 4.963-1.349 6.686-3.265 6.229-4.678 9.348-12.833 7.212-20.808l-14.932-55.728c-2.771-10.339-13.713-16.673-24.072-13.897l-345.76 92.646c-2.173-.83-4.521-1.305-6.983-1.305h-68.645c-10.838 0-19.655 8.817-19.655 19.654v4.934c0 4.139 3.355 7.494 7.494 7.494s7.494-3.355 7.494-7.494v-4.934c0-2.573 2.094-4.666 4.667-4.666h68.645c2.573 0 4.667 2.093 4.667 4.666v144.006c0 2.573-2.094 4.666-4.667 4.666h-73.312v-108.765c0-4.139-3.355-7.494-7.494-7.494s-7.494 3.355-7.494 7.494v116.26 224.53c0 10.837 8.817 19.654 19.655 19.654h107.813c4.139 0 7.494-3.355 7.494-7.494s-3.355-7.494-7.494-7.494h-107.813c-2.573 0-4.667-2.094-4.667-4.667v-217.036h73.312 396.132v217.036c0 2.573-2.093 4.667-4.666 4.667h-317.326c-4.139 0-7.494 3.355-7.494 7.494s3.355 7.494 7.494 7.494h317.326c10.837 0 19.654-8.817 19.654-19.655v-294.384c0-10.837-8.817-19.654-19.654-19.654zm-34.844-163.177c2.458-.659 5.057.847 5.715 3.3l14.932 55.727c.215.802.186 1.606-.008 2.357l-80.485-45.349zm-80.537 21.58 83.465 47.028-103.184 27.648-83.464-47.028zm-123.876 33.193 83.464 47.028-99.26 26.597-83.464-47.028zm-119.953 32.141 83.464 47.028-96.065 25.74v-63.163c0-2.085-.332-4.091-.937-5.978zm-13.184 158.277c.367-1.499.583-3.056.583-4.666v-62.36h102.388l-68.448 67.027h-34.523zm55.946 0 68.448-67.027h102.761l-68.448 67.027zm321.114 0h-68.686l67.173-65.779c.924.853 1.514 2.064 1.514 3.418v62.361z"/><path d="m68.98 371.125h176.162c4.139 0 7.494-3.355 7.494-7.494s-3.355-7.494-7.494-7.494h-176.162c-4.139 0-7.494 3.355-7.494 7.494s3.355 7.494 7.494 7.494z"/><path d="m68.98 419.767h176.162c4.139 0 7.494-3.355 7.494-7.494s-3.355-7.494-7.494-7.494h-176.162c-4.139 0-7.494 3.355-7.494 7.494s3.355 7.494 7.494 7.494z"/><path d="m376.909 439.122 65.006-37.532c5.309-3.065 8.601-8.767 8.601-14.896 0-6.13-3.291-11.832-8.601-14.897l-65.006-37.531c-5.429-3.136-12.336-3.011-17.667.278-5.016 3.094-8.135 8.729-8.135 14.619v75.062c0 9.361 7.795 17.229 17.201 17.229 2.953 0 5.907-.778 8.601-2.332zm-10.815-14.898v-75.062c0-1.678 1.859-2.761 3.321-1.916l65.006 37.531c1.458.842 1.459 2.991 0 3.834l-65.006 37.532c-1.461.844-3.321-.238-3.321-1.919z"/><path d="m92.031 183.652c0-17.514-14.249-31.763-31.763-31.763s-31.763 14.248-31.763 31.763 14.249 31.763 31.763 31.763 31.763-14.249 31.763-31.763zm-48.539 0c0-9.249 7.525-16.775 16.775-16.775s16.775 7.525 16.775 16.775c0 9.249-7.525 16.775-16.775 16.775s-16.775-7.526-16.775-16.775z"/></svg>