<?xml version="1.0" encoding="iso-8859-1"?>
<!-- Generator: Adobe Illustrator 19.0.0, SVG Export Plug-In . SVG Version: 6.00 Build 0)  -->
<svg version="1.1" id="Capa_1" xmlns="http://www.w3.org/2000/svg" xmlns:xlink="http://www.w3.org/1999/xlink" x="0px" y="0px"
	 viewBox="0 0 512 512" style="enable-background:new 0 0 512 512;" xml:space="preserve">
<path style="fill:#57A4FF;" d="M284.628,270.36l7.942-34.29h-73.936l7.942,34.29c-27.18,12.23-45.002,41.068-41.288,72.824
	l18.87,161.313h102.884l18.87-161.313C329.629,311.429,311.807,282.591,284.628,270.36z"/>
<rect x="245.128" y="131.237" style="fill:#91DC5A;" width="20.126" height="104.839"/>
<path style="fill:#FF7956;" d="M270.891,131.237h-30.793v-30.793c0-30.101,24.402-54.503,54.503-54.503h30.793v30.793
	C325.394,106.835,300.992,131.237,270.891,131.237z"/>
<g>
	<path style="fill:#C2FB3B;" d="M299.004,214.9h-10.555v-10.555c0-33.654,27.283-60.937,60.937-60.937h10.555v10.555
		C359.941,187.618,332.658,214.9,299.004,214.9z"/>
	<path style="fill:#C2FB3B;" d="M219.594,205.016h11.698v-11.698c0-37.298-30.236-67.536-67.536-67.536h-11.698v11.698
		C152.059,174.779,182.296,205.016,219.594,205.016z"/>
</g>
<g>
	<path style="fill:#FF7956;" d="M255.187,62.812c8.302-8.687,19.447-14.635,31.944-16.349c-2.55-5.076-5.929-9.843-10.166-14.079
		l-21.774-21.775l-21.774,21.774c-4.237,4.237-7.616,9.004-10.166,14.079C235.748,48.177,246.887,54.122,255.187,62.812z"/>
	<path style="fill:#FF7956;" d="M255.191,62.816c-9.925-10.392-23.905-16.876-39.409-16.876H184.99v30.793
		c0,30.101,24.402,54.503,54.503,54.503h0.605v-30.793C240.097,85.846,245.848,72.599,255.191,62.816z"/>
</g>
<path style="fill:#006DF0;" d="M256.585,270.36l-7.942-34.29h-30.008l7.942,34.29c-27.18,12.23-45.003,41.068-41.288,72.824
	l18.87,161.313h30.008l-18.87-161.313C211.583,311.429,229.405,282.591,256.585,270.36z"/>
<rect x="245.128" y="131.237" style="fill:#64C37D;" width="10.003" height="104.839"/>
<path style="fill:#FF3F62;" d="M324.609,45.94H294.6c-30.101,0-54.503,24.402-54.503,54.503v30.794h30.008v-30.793
	C270.106,70.342,294.508,45.94,324.609,45.94z"/>
<g>
	<path style="fill:#91DC5A;" d="M308.454,204.345c0-30.441,22.32-55.668,51.487-60.209v-0.729h-10.555
		c-33.654,0-60.937,27.283-60.937,60.937v10.555h10.555c3.215,0,6.371-0.249,9.451-0.729v-9.825H308.454z"/>
	<path style="fill:#91DC5A;" d="M172.065,137.481v-11.192c-2.723-0.334-5.495-0.506-8.307-0.506h-11.698v11.698
		c0,37.298,30.236,67.536,67.536,67.536h11.698v-0.506C197.913,200.415,172.065,171.966,172.065,137.481z"/>
</g>
<g>
	<path style="fill:#FF3F62;" d="M253.26,46.463c2.55-5.076,5.929-9.843,10.166-14.079l6.77-6.77L255.191,10.61l-21.774,21.774
		c-4.237,4.237-7.616,9.003-10.166,14.079c12.496,1.713,23.635,7.659,31.936,16.349c4.307-4.506,9.379-8.275,15.007-11.099
		C264.974,49.093,259.274,47.287,253.26,46.463z"/>
	<path style="fill:#FF3F62;" d="M214.998,76.734V45.94H184.99v30.793c0,30.101,24.402,54.503,54.503,54.503h0.604v-8.604
		C225.001,112.941,214.998,96.005,214.998,76.734z"/>
</g>
<rect x="223.072" y="472.493" width="15.004" height="15.004"/>
<rect x="273.086" y="472.493" width="15.004" height="15.004"/>
<rect x="248.079" y="472.493" width="15.004" height="15.004"/>
<path d="M293.271,266.288l8.735-37.719h-92.811l8.736,37.719c-27.882,15.259-43.84,45.755-40.095,77.768L197.483,512h116.236
	l19.647-167.944C337.111,312.043,321.153,281.547,293.271,266.288z M318.463,342.313l-18.095,154.683h-89.533l-4.183-35.76h48.95
	v-15.004h-50.704l-12.156-103.919c-3.163-27.039,11.059-52.737,35.496-64.451h27.366v-15.004h-23.061l-4.467-19.284h55.058
	l-7.203,31.099l5.621,2.53C306.853,288.588,321.687,314.755,318.463,342.313z"/>
<g>
	<path style="fill:#FFFFFF;" d="M293.881,334.866c0,1.504-0.09,3.031-0.267,4.539l-9.823,83.973l14.902,1.742l9.823-83.97
		c0.244-2.084,0.368-4.198,0.368-6.285c0-0.973-0.027-1.962-0.08-2.938l-14.983,0.82
		C293.861,333.454,293.881,334.166,293.881,334.866z"/>
	<path style="fill:#FFFFFF;" d="M287.166,313.228c2.38,3.455,4.16,7.254,5.294,11.293l14.445-4.054
		c-1.58-5.634-4.064-10.932-7.383-15.749L287.166,313.228z"/>
	<path style="fill:#FFFFFF;" d="M291.922,295.923c-4.261-3.956-9.134-7.183-14.482-9.59l-6.158,13.682
		c3.857,1.736,7.367,4.059,10.43,6.903L291.922,295.923z"/>
	<path style="fill:#FFFFFF;" d="M292.885,76.734c0,12.127-9.866,21.993-21.993,21.993h-5.786v15.004h5.786
		c20.401,0,36.997-16.598,36.997-36.997v-5.786h-15.004V76.734z"/>
</g>
<path d="M280.947,204.345v18.057h18.057c37.738,0,68.439-30.702,68.439-68.439v-18.057h-18.057
	C311.649,135.906,280.947,166.609,280.947,204.345z M352.439,153.963c0,26.683-19.658,48.86-45.252,52.809l22.809-22.809
	l-10.61-10.61l-22.809,22.809c3.95-25.594,26.127-45.252,52.809-45.252h3.053L352.439,153.963L352.439,153.963z"/>
<path d="M237.624,212.518v3.548h15.004v-77.328h5.126v77.328h15.004V138.71c33.328-0.991,60.137-28.412,60.137-61.976V38.439
	h-38.295c-1.109,0-2.212,0.03-3.307,0.087c-2.544-4.153-5.566-7.989-9.024-11.448L255.191,0l-27.079,27.079
	c-3.457,3.457-6.478,7.293-9.022,11.445c-1.097-0.057-2.2-0.086-3.308-0.086h-38.295v38.295c0,33.564,26.808,60.985,60.136,61.976
	v41.364c-6.273-35.082-37.009-61.793-73.868-61.793h-19.199v19.199c0,41.376,33.661,75.038,75.038,75.038L237.624,212.518
	L237.624,212.518z M317.892,76.734c0,25.916-21.084,47-47,47h-23.293v-23.291c0-25.916,21.085-47,47.001-47h23.291v23.291H317.892z
	 M238.723,37.689l16.469-16.47l16.47,16.469c1.231,1.231,2.391,2.528,3.472,3.881c-5.458,1.809-10.58,4.357-15.25,7.525
	c-1.612,1.088-3.175,2.254-4.682,3.492c-5.961-4.938-12.7-8.66-19.929-11.044C236.348,40.197,237.499,38.912,238.723,37.689z
	 M192.492,76.734V53.443h23.291c10.698,0,20.795,3.527,29.037,10.046c-6.742,9.051-10.856,19.711-11.937,30.962
	c-0.004,0.038-0.007,0.076-0.011,0.114c-0.017,0.176-0.032,0.352-0.047,0.528c-0.006,0.072-0.012,0.145-0.018,0.217
	c-0.008,0.093-0.015,0.185-0.022,0.278c-0.008,0.099-0.015,0.198-0.022,0.297c-0.008,0.104-0.015,0.208-0.022,0.313
	c-0.008,0.123-0.016,0.245-0.024,0.368c-0.004,0.07-0.009,0.14-0.013,0.21c-0.01,0.164-0.019,0.328-0.027,0.493
	c-0.002,0.044-0.004,0.089-0.006,0.133c-0.004,0.08-0.008,0.16-0.011,0.24c-8.796-2.879-15.167-11.163-15.167-20.909v-5.786h-15.004
	v5.786c0,18.047,12.989,33.117,30.109,36.354v10.141C209.938,119.883,192.492,100.307,192.492,76.734z M159.561,137.48v-4.195h4.195
	c30.806,0,56.265,23.322,59.651,53.236l-34.351-34.351l-10.61,10.61l34.351,34.351C182.883,193.744,159.561,168.285,159.561,137.48z
	"/>
<g>
</g>
<g>
</g>
<g>
</g>
<g>
</g>
<g>
</g>
<g>
</g>
<g>
</g>
<g>
</g>
<g>
</g>
<g>
</g>
<g>
</g>
<g>
</g>
<g>
</g>
<g>
</g>
<g>
</g>
</svg>
