<?xml version="1.0" encoding="iso-8859-1"?>
<!-- Generator: Adobe Illustrator 19.0.0, SVG Export Plug-In . SVG Version: 6.00 Build 0)  -->
<svg version="1.1" id="Capa_1" xmlns="http://www.w3.org/2000/svg" xmlns:xlink="http://www.w3.org/1999/xlink" x="0px" y="0px"
	 viewBox="0 0 512 512" style="enable-background:new 0 0 512 512;" xml:space="preserve">
<path style="fill:#FEDBAB;" d="M512,339.401L419.001,476c-16.8,22.5-43.801,36-87.001,36H92l-30-15L15,343.299L30,331h25.3
	c9.6,0,19.9-3.6,27.4-9.901c19.501-17.399,44.099-25.8,68.699-25.8c34.501,0,54.901,12.599,77.1,32.1c2.701,2.1,6.901,3.6,9.901,3.6
	H362v60H227v30c0,0,29.399,0,60,0h69.901c5.7,0,16.5-3.6,22.2-9.6L466.099,301L512,339.401z"/>
<path style="fill:#FD4E26;" d="M369.2,0c-42.6,0-68.101,28.001-82.2,51.099C272.901,28.001,247.4,0,204.8,0
	c-54.6,0-97.2,46.901-97.2,105.099c0,63.9,50.4,106.501,127.2,171c13.2,11.4,27.299,23.401,42.299,36.301l9.901,8.399l9.901-8.399
	c15-12.9,29.099-24.901,42.299-36.301c24.901-20.7,46.201-38.699,64.501-56.1C436.1,188.499,466.4,153.1,466.4,105.098
	C466.399,46.901,423.8,0,369.2,0z"/>
<path style="fill:#FD3018;" d="M296.901,312.4L287,320.799v-269.7C301.099,28.001,326.6,0,369.2,0c54.6,0,97.2,46.901,97.2,105.099
	c0,48.001-30.3,83.401-62.699,114.901c-18.3,17.401-39.6,35.4-64.501,56.1C326,287.5,311.901,299.5,296.901,312.4z"/>
<polygon style="fill:#EFE6DE;" points="482,151 482,181 367.7,181 345.2,135.7 287,223.001 228.8,135.7 206.3,181 92,181 92,151 
	187.7,151 225.2,76.3 287,168.999 348.8,76.3 386.3,151 "/>
<polygon style="fill:#DFCCBF;" points="482,151 482,181 367.7,181 345.2,135.7 287,223.001 287,168.999 348.8,76.3 386.3,151 "/>
<g>
	<rect x="287" y="331" style="fill:#FEC478;" width="75" height="60"/>
	<path style="fill:#FEC478;" d="M512,339.401L419.001,476c-16.8,22.5-43.801,36-87.001,36h-45v-91h69.901c5.7,0,16.5-3.6,22.2-9.6
		L466.099,301L512,339.401z"/>
</g>
<path style="fill:#1689FC;" d="M92,512H0V301h92V512z"/>
<g>
</g>
<g>
</g>
<g>
</g>
<g>
</g>
<g>
</g>
<g>
</g>
<g>
</g>
<g>
</g>
<g>
</g>
<g>
</g>
<g>
</g>
<g>
</g>
<g>
</g>
<g>
</g>
<g>
</g>
</svg>
