<?xml version="1.0" encoding="iso-8859-1"?>
<!-- Generator: Adobe Illustrator 19.0.0, SVG Export Plug-In . SVG Version: 6.00 Build 0)  -->
<svg version="1.1" id="Layer_1" xmlns="http://www.w3.org/2000/svg" xmlns:xlink="http://www.w3.org/1999/xlink" x="0px" y="0px"
	 viewBox="0 0 512 512" style="enable-background:new 0 0 512 512;" xml:space="preserve">
<path style="fill:#EFEFEF;" d="M452.254,10.734h-254.84c-25.965,0-47.015,21.049-47.015,47.015v142.129
	c0,25.965,21.049,47.015,47.015,47.015h33.561l-4.54,62.873l82.175-62.874h143.643c25.965,0,47.015-21.049,47.015-47.015V57.749
	C499.268,31.784,478.22,10.734,452.254,10.734z"/>
<g>
	<path style="fill:#FBC640;" d="M131.725,429.027H84.969c-39.895,0-72.237,32.342-72.237,72.237l0,0h191.231l0,0
		C203.963,461.37,171.622,429.027,131.725,429.027z"/>
	<path style="fill:#FBC640;" d="M108.348,438.521L108.348,438.521c-34.525,0-62.514-27.988-62.514-62.513v-32.636
		c0-34.525,27.988-62.513,62.513-62.513l0,0c34.525,0,62.513,27.988,62.513,62.513v32.635
		C170.861,410.533,142.873,438.521,108.348,438.521z"/>
</g>
<g>
	<path style="fill:#231F20;" d="M452.254,0h-254.84c-31.843,0-57.749,25.906-57.749,57.749v142.129
		c0,31.843,25.906,57.749,57.749,57.749h22.024l-3.709,51.365c-0.304,4.213,1.891,8.213,5.609,10.22
		c1.599,0.863,3.352,1.288,5.097,1.288c2.312,0,4.613-0.746,6.524-2.209l79.286-60.665h140.009
		c31.843,0,57.749-25.906,57.749-57.749V57.749C510.002,25.906,484.097,0,452.254,0z M488.534,199.877
		c0,20.005-16.275,36.28-36.28,36.28H308.61c-2.357,0-4.65,0.776-6.522,2.209l-63.227,48.376l2.821-39.078
		c0.215-2.973-0.817-5.903-2.848-8.085s-4.878-3.422-7.859-3.422h-33.561c-20.005,0-36.28-16.276-36.28-36.28V57.749
		c0-20.005,16.275-36.28,36.28-36.28h254.839c20.005,0,36.28,16.276,36.28,36.28L488.534,199.877L488.534,199.877z"/>
	<path style="fill:#231F20;" d="M163.168,424.511c11.453-12.93,18.427-29.914,18.427-48.503v-32.636
		c0-40.389-32.859-73.248-73.247-73.248S35.1,302.983,35.1,343.372v32.635c0,18.59,6.974,35.574,18.427,48.503
		c-30.201,12.416-51.531,42.131-51.531,76.755c0,5.929,4.806,10.734,10.734,10.734h191.231c5.929,0,10.734-4.806,10.734-10.734
		C214.698,466.642,193.369,436.927,163.168,424.511z M56.568,343.372c0-28.551,23.228-51.78,51.778-51.78
		s51.778,23.228,51.778,51.78v32.635c0,28.551-23.228,51.78-51.778,51.78s-51.778-23.228-51.778-51.78L56.568,343.372
		L56.568,343.372z M24.404,490.531c4.469-25.28,24.435-45.278,49.696-49.802c10.228,5.434,21.881,8.526,34.248,8.526
		s24.02-3.093,34.248-8.526c25.261,4.525,45.226,24.523,49.696,49.802H24.404z"/>
	<path style="fill:#231F20;" d="M249.693,83.569V72.835c0-17.757-14.446-32.203-32.203-32.203s-32.203,14.446-32.203,32.203v10.734
		c0,17.757,14.446,32.203,32.203,32.203S249.693,101.326,249.693,83.569z M228.224,83.569c0,5.919-4.815,10.734-10.734,10.734
		c-5.919,0-10.734-4.815-10.734-10.734V72.835c0-5.919,4.815-10.734,10.734-10.734c5.919,0,10.734,4.815,10.734,10.734V83.569z"/>
	<path style="fill:#231F20;" d="M260.427,133.664c-17.757,0-32.203,14.446-32.203,32.203v10.734
		c0,17.757,14.446,32.203,32.203,32.203s32.203-14.446,32.203-32.203v-10.734C292.631,148.109,278.184,133.664,260.427,133.664z
		 M271.162,176.601c0,5.919-4.815,10.734-10.734,10.734s-10.734-4.815-10.734-10.734v-10.734c0-5.919,4.815-10.734,10.734-10.734
		s10.734,4.815,10.734,10.734V176.601z"/>
	<path style="fill:#231F20;" d="M346.303,133.664c-17.757,0-32.203,14.446-32.203,32.203v10.734
		c0,17.757,14.446,32.203,32.203,32.203c17.757,0,32.203-14.446,32.203-32.203v-10.734
		C378.506,148.109,364.06,133.664,346.303,133.664z M357.037,176.601c0,5.919-4.815,10.734-10.734,10.734
		c-5.919,0-10.734-4.815-10.734-10.734v-10.734c0-5.919,4.815-10.734,10.734-10.734c5.919,0,10.734,4.815,10.734,10.734V176.601z"/>
	<path style="fill:#231F20;" d="M432.178,40.632c-17.757,0-32.203,14.446-32.203,32.203v10.734
		c0,17.757,14.446,32.203,32.203,32.203c17.757,0,32.203-14.446,32.203-32.203V72.835C464.381,55.078,449.935,40.632,432.178,40.632
		z M442.912,83.569c0,5.919-4.815,10.734-10.734,10.734c-5.919,0-10.734-4.815-10.734-10.734V72.835
		c0-5.919,4.815-10.734,10.734-10.734c5.919,0,10.734,4.815,10.734,10.734V83.569z"/>
	<path style="fill:#231F20;" d="M281.896,40.632c-5.928,0-10.734,4.806-10.734,10.734v53.672c0,5.929,4.807,10.734,10.734,10.734
		c5.928,0,10.734-4.806,10.734-10.734V51.366C292.631,45.438,287.825,40.632,281.896,40.632z"/>
	<path style="fill:#231F20;" d="M196.021,133.664c-5.929,0-10.734,4.806-10.734,10.734v53.672c0,5.929,4.806,10.734,10.734,10.734
		c5.929,0,10.734-4.806,10.734-10.734v-53.672C206.755,138.47,201.95,133.664,196.021,133.664z"/>
	<path style="fill:#231F20;" d="M324.834,115.773c5.928,0,10.734-4.806,10.734-10.734V51.366c0-5.929-4.807-10.734-10.734-10.734
		c-5.928,0-10.734,4.806-10.734,10.734v53.672C314.099,110.967,318.906,115.773,324.834,115.773z"/>
	<path style="fill:#231F20;" d="M410.709,133.664c-5.928,0-10.734,4.806-10.734,10.734v53.672c0,5.929,4.807,10.734,10.734,10.734
		c5.928,0,10.734-4.806,10.734-10.734v-53.672C421.443,138.47,416.638,133.664,410.709,133.664z"/>
	<path style="fill:#231F20;" d="M367.771,40.632c-5.928,0-10.734,4.806-10.734,10.734v53.672c0,5.929,4.807,10.734,10.734,10.734
		c5.928,0,10.734-4.806,10.734-10.734V51.366C378.506,45.438,373.7,40.632,367.771,40.632z"/>
	<path style="fill:#231F20;" d="M453.647,187.336c-5.928,0-10.734,4.806-10.734,10.734v0.325c0,5.929,4.807,10.734,10.734,10.734
		c5.928,0,10.734-4.806,10.734-10.734v-0.325C464.381,192.142,459.575,187.336,453.647,187.336z"/>
	<path style="fill:#231F20;" d="M453.647,133.664c-5.928,0-10.734,4.806-10.734,10.734v16.516c0,5.929,4.807,10.734,10.734,10.734
		c5.928,0,10.734-4.806,10.734-10.734v-16.516C464.381,138.47,459.575,133.664,453.647,133.664z"/>
</g>
<g>
</g>
<g>
</g>
<g>
</g>
<g>
</g>
<g>
</g>
<g>
</g>
<g>
</g>
<g>
</g>
<g>
</g>
<g>
</g>
<g>
</g>
<g>
</g>
<g>
</g>
<g>
</g>
<g>
</g>
</svg>
