<svg viewBox="-28 0 511 511.99876" xmlns="http://www.w3.org/2000/svg"><path d="m42.988281 461.003906c2.625 3.667969 7.445313 5.082032 11.621094 3.371094 17.328125-7.089844 36.292969-10.992188 56.175781-10.992188 42.742188 0 81.265625 18.035157 108.347656 46.898438 5.28125 5.625 14.308594 5.625 19.589844 0 27.09375-28.863281 65.613282-46.898438 108.359375-46.898438 18.371094 0 35.957031 3.335938 52.191407 9.433594 4.703124 1.765625 10.027343.171875 12.910156-3.941406 13.851562-19.769531 25.40625-41.789062 34.179687-65.523438 1.539063-4.160156.460938-8.878906-2.820312-11.875-29.644531-27.082031-48.230469-66.03125-48.230469-109.316406 0-39.878906 15.777344-76.085937 41.445312-102.703125 3.148438-3.261719 4.085938-8.074219 2.238282-12.210937-13.6875-30.652344-32.160156-57.957032-54.28125-80.578125-3.085938-3.15625-7.78125-4.246094-11.898438-2.660157-7.984375 3.078126-16.65625 4.769532-25.734375 4.769532-35.054687 0-64.222656-25.207032-70.277343-58.457032-.792969-4.355468-4.207032-7.796874-8.550782-8.679687-13.457031-2.730469-27.300781-4.160156-41.429687-4.160156-12.515625 0-24.8125 1.117187-36.8125 3.273437-4.511719.8125-8.058594 4.371094-8.832031 8.878906-5.773438 33.589844-35.09375 59.144532-70.394532 59.144532-9.992187 0-19.511718-2.046875-28.148437-5.753906-4.210938-1.808594-9.105469-.996094-12.332031 2.253906-21.753907 21.917968-40.050782 48.328125-53.824219 77.980468-1.960938 4.222657-1.039063 9.246094 2.3125 12.484376 27.847656 26.910156 45.160156 64.648437 45.160156 106.417968 0 45.15625-20.230469 85.597656-52.152344 112.765625-3.523437 3-4.726562 7.941407-3.0625 12.257813 8.910157 23.121094 20.476563 44.566406 34.25 63.820312zm0 0" fill="#c35d1d"/><path d="m443.542969 381.476562c-29.644531-27.082031-48.230469-66.03125-48.230469-109.316406 0-39.878906 15.777344-76.085937 41.445312-102.703125 3.148438-3.261719 4.085938-8.074219 2.238282-12.210937-13.683594-30.652344-32.15625-57.957032-54.28125-80.578125-3.085938-3.15625-7.78125-4.246094-11.898438-2.660157-7.984375 3.078126-16.65625 4.769532-25.730468 4.769532-20.089844 0-38.230469-8.285156-51.210938-21.609375 13.417969 42.796875 20.65625 88.324219 20.65625 135.539062 0 112.988281-41.429688 216.316407-109.941406 295.679688 4.40625 3.722656 8.601562 7.6875 12.542968 11.890625 5.28125 5.628906 14.3125 5.628906 19.59375.003906 27.089844-28.863281 65.613282-46.898438 108.359376-46.898438 18.371093 0 35.957031 3.335938 52.191406 9.433594 4.703125 1.765625 10.027344.167969 12.90625-3.941406 13.851562-19.769531 25.40625-41.789062 34.183594-65.523438 1.535156-4.160156.457031-8.878906-2.824219-11.875zm0 0" fill="#bc5214"/><path d="m448.601562 375.9375c-29.101562-26.585938-45.789062-64.410156-45.789062-103.777344 0-36.5625 13.972656-71.183594 39.34375-97.496094 5.328125-5.523437 6.777344-13.5625 3.6875-20.476562-14.035156-31.433594-32.800781-59.28125-55.769531-82.765625-5.226563-5.34375-13.058594-7.074219-19.957031-4.410156-7.34375 2.828125-15.09375 4.265625-23.035157 4.265625-30.929687 0-57.382812-21.996094-62.898437-52.300782-1.332032-7.300781-7.132813-13.203124-14.4375-14.6875-26.585938-5.394531-54.425782-5.699218-81.0625-.917968-7.605469 1.367187-13.59375 7.394531-14.898438 14.992187-3.5625 20.746094-17.1875 38.378907-36.441406 47.164063-3.765625 1.722656-5.425781 6.171875-3.707031 9.941406 1.71875 3.765625 6.164062 5.425781 9.9375 3.707031 23.769531-10.847656 40.589843-32.632812 44.996093-58.273437.238282-1.398438 1.351563-2.511719 2.765626-2.765625 24.78125-4.449219 50.6875-4.167969 75.429687.855469 1.347656.273437 2.417969 1.347656 2.660156 2.671874 6.816407 37.441407 39.476563 64.613282 77.660157 64.613282 9.792968 0 19.355468-1.773438 28.429687-5.273438 1.28125-.488281 2.824219-.128906 3.835937.90625 21.722657 22.210938 39.488282 48.585938 52.796876 78.390625.582031 1.300781.273437 2.851563-.789063 3.949219-28.082031 29.121094-43.546875 67.445312-43.546875 107.90625 0 43.570312 18.46875 85.4375 50.671875 114.855469.996094.910156 1.335937 2.414062.847656 3.738281-8.472656 22.917969-19.671875 44.390625-33.289062 63.820312-.90625 1.292969-2.605469 1.792969-4.128907 1.222657-9.335937-3.503907-19.066406-6.117188-28.914062-7.765625-4.082031-.675782-7.953125 2.070312-8.636719 6.160156-.683593 4.082031 2.074219 7.949219 6.160157 8.632812 8.898437 1.488282 17.683593 3.851563 26.113281 7.015626 2.148437.808593 4.367187 1.195312 6.558593 1.195312 5.902344 0 11.601563-2.820312 15.132813-7.851562 14.351563-20.488282 26.152344-43.105469 35.070313-67.226563 2.625-7.097656.742187-14.953125-4.796876-20.015625zm0 0"/><path d="m340.699219 446.011719c-41.101563 1.652343-79.257813 19.105469-107.441407 49.136719-1.121093 1.195312-2.660156 1.851562-4.328124 1.851562-1.667969 0-3.203126-.65625-4.328126-1.851562-29.375-31.308594-70.859374-49.265626-113.816406-49.265626-20.429687 0-40.28125 3.886719-59.011718 11.550782-.945313.386718-2.074219.054687-2.683594-.792969-13.519532-18.898437-24.742188-39.808594-33.351563-62.152344-.53125-1.378906-.160156-2.929687.925781-3.851562 34.820313-29.632813 54.792969-72.816407 54.792969-118.476563 0-42.539062-16.851562-82.246094-47.453125-111.816406-1.050781-1.015625-1.339844-2.59375-.71875-3.925781 13.390625-28.835938 31.003906-54.359375 52.339844-75.855469 1.011719-1.019531 2.601562-1.273438 4.054688-.648438 9.835937 4.222657 20.300781 6.363282 31.105468 6.363282 4.140625 0 7.5-3.359375 7.5-7.5 0-4.144532-3.359375-7.5-7.5-7.5-8.761718 0-17.234375-1.730469-25.191406-5.148438-7.144531-3.066406-15.238281-1.550781-20.613281 3.867188-22.566407 22.734375-41.175781 49.6875-55.300781 80.101562-3.3125 7.128906-1.742188 15.582032 3.902343 21.035156 27.644531 26.714844 42.871094 62.59375 42.871094 101.023438 0 41.257812-18.046875 80.277344-49.511719 107.058594-5.929687 5.042968-8.019531 13.347656-5.199218 20.664062 9.0625 23.527344 20.890624 45.5625 35.148437 65.488282 4.679687 6.539062 13.136719 8.984374 20.558594 5.949218 16.921875-6.925781 34.863281-10.433594 53.332031-10.433594 39.402344 0 75.9375 15.8125 102.882812 44.527344 3.925782 4.1875 9.492188 6.585938 15.265626 6.589844 5.769531 0 11.335937-2.402344 15.261718-6.589844 25.480469-27.144531 59.96875-42.917968 97.109375-44.414062 4.140625-.164063 7.359375-3.65625 7.191407-7.792969-.164063-4.136719-3.632813-7.320313-7.792969-7.191406zm0 0"/><path d="m94.027344 101.351562c-2.128906-.378906-4.261719-.832031-6.347656-1.347656-4.023438-1.003906-8.089844 1.449219-9.085938 5.46875-1 4.019532 1.449219 8.089844 5.46875 9.085938 2.414062.601562 4.886719 1.125 7.347656 1.5625.441406.078125.882813.117187 1.316406.117187 3.570313 0 6.734376-2.558593 7.375-6.195312.722657-4.078125-1.996093-7.96875-6.074218-8.691407zm0 0"/><path d="m72.882812 433.34375c.523438 0 1.050782-.054688 1.578126-.167969 2.179687-.46875 4.398437-.898437 6.585937-1.277343 4.078125-.707032 6.8125-4.589844 6.105469-8.671876-.710938-4.082031-4.589844-6.816406-8.675782-6.105468-2.378906.414062-4.789062.878906-7.15625 1.386718-4.050781.867188-6.632812 4.855469-5.765624 8.902344.757812 3.523438 3.867187 5.933594 7.328124 5.933594zm0 0"/><path d="m95.355469 283.207031c.050781.003907.101562.003907.152343.003907 4.074219 0 7.414063-3.261719 7.496094-7.351563.023438-1.234375.035156-2.46875.035156-3.699219 0-1.203125-.011718-2.402344-.03125-3.597656-.078124-4.09375-3.421874-7.359375-7.496093-7.359375-.050781 0-.097657 0-.144531 0-4.140626.078125-7.4375 3.5-7.359376 7.640625.019532 1.101562.03125 2.207031.03125 3.320312 0 1.132813-.011718 2.265626-.035156 3.398438-.082031 4.140625 3.210938 7.5625 7.351563 7.644531zm0 0"/><path d="m92.652344 210.34375c-.800782-2.289062-1.65625-4.589844-2.542969-6.839844-1.519531-3.851562-5.871094-5.742187-9.730469-4.226562-3.851562 1.519531-5.742187 5.875-4.226562 9.730468.816406 2.0625 1.601562 4.175782 2.335937 6.28125 1.078125 3.09375 3.980469 5.03125 7.082031 5.03125.816407 0 1.652344-.136718 2.46875-.421874 3.914063-1.363282 5.976563-5.640626 4.613282-9.554688zm0 0"/><path d="m99.472656 235.472656c-.800781-4.066406-4.742187-6.707031-8.808594-5.90625-4.0625.800782-6.710937 4.746094-5.90625 8.808594.429688 2.183594.824219 4.402344 1.171876 6.605469.578124 3.699219 3.769531 6.339843 7.398437 6.339843.386719 0 .777344-.03125 1.175781-.09375 4.089844-.644531 6.886719-4.480468 6.242188-8.574218-.375-2.394532-.804688-4.8125-1.273438-7.179688zm0 0"/><path d="m256.578125 38.070312c-.917969-2.714843-3.304687-4.671874-6.148437-5.039062-.996094-.128906-1.992188-.25-2.992188-.359375-4.109375-.488281-7.828125 2.492187-8.292969 6.609375-.390625 3.46875 1.648438 6.648438 4.757813 7.84375 1.171875 2.917969 3.980468 4.707031 6.964844 4.707031.886718 0 1.792968-.160156 2.675781-.496093 3.867187-1.480469 5.804687-5.816407 4.324219-9.683594-.457032-1.195313-.886719-2.398438-1.289063-3.582032zm0 0"/><path d="m268.703125 62.054688c-2.375-3.394532-7.046875-4.21875-10.445313-1.847657-3.394531 2.375-4.21875 7.050781-1.84375 10.445313 1.429688 2.042968 2.945313 4.0625 4.511719 6.003906 1.484375 1.839844 3.652344 2.792969 5.84375 2.792969 1.652344 0 3.316407-.542969 4.703125-1.664063 3.226563-2.601562 3.730469-7.320312 1.128906-10.546875-1.351562-1.675781-2.664062-3.417969-3.898437-5.183593zm0 0"/><path d="m104.605469 429.457031c.085937 0 .171875 0 .257812-.003906 1.953125-.066406 3.941407-.101563 5.894531-.101563l.828126.003907h.027343c4.128907 0 7.484375-3.339844 7.5-7.472657.011719-4.144531-3.332031-7.511718-7.476562-7.527343l-.851563-.003907c-2.148437 0-4.3125.035157-6.429687.109376-4.136719.140624-7.382813 3.609374-7.242188 7.746093.140625 4.058594 3.46875 7.25 7.492188 7.25zm0 0"/><path d="m89.972656 340.875c.894532-2.257812 1.75-4.558594 2.546875-6.832031 1.371094-3.910157-.6875-8.191407-4.597656-9.558594-3.90625-1.371094-8.1875.6875-9.558594 4.597656-.730469 2.089844-1.519531 4.203125-2.339843 6.28125-1.523438 3.851563.363281 8.207031 4.21875 9.730469.902343.355469 1.835937.527344 2.753906.527344 2.988281 0 5.8125-1.796875 6.976562-4.746094zm0 0"/><path d="m99.398438 308.945312c.472656-2.367187.90625-4.78125 1.289062-7.175781.65625-4.089843-2.128906-7.9375-6.21875-8.589843-4.09375-.65625-7.9375 2.128906-8.59375 6.21875-.351562 2.203124-.753906 4.425781-1.1875 6.601562-.8125 4.0625 1.820312 8.015625 5.882812 8.828125.496094.097656.992188.144531 1.480469.144531 3.5 0 6.632813-2.464844 7.347657-6.027344zm0 0"/><path d="m266.277344 432.691406c-2.1875 1.042969-4.378906 2.140625-6.519532 3.261719-3.667968 1.925781-5.082031 6.457031-3.15625 10.125 1.339844 2.558594 3.949219 4.019531 6.648438 4.019531 1.171875 0 2.363281-.277344 3.476562-.859375 1.96875-1.035156 3.988282-2.042969 6.003907-3.003906 3.738281-1.78125 5.324219-6.257813 3.542969-9.996094-1.78125-3.742187-6.261719-5.328125-9.996094-3.546875zm0 0"/><path d="m151.9375 93.589844c-1.953125.925781-3.957031 1.792968-5.957031 2.582031-3.855469 1.515625-5.753907 5.871094-4.234375 9.722656 1.160156 2.953125 3.988281 4.757813 6.980468 4.757813.914063 0 1.839844-.167969 2.742188-.519532 2.316406-.914062 4.636719-1.917968 6.890625-2.984374 3.742187-1.773438 5.339844-6.25 3.566406-9.992188-1.773437-3.742188-6.246093-5.335938-9.988281-3.566406zm0 0"/><path d="m176.21875 94.527344c1.671875 0 3.355469-.558594 4.75-1.699219 1.933594-1.585937 3.832031-3.25 5.644531-4.949219 3.019531-2.839844 3.164063-7.585937.328125-10.601562-2.835937-3.019532-7.582031-3.167969-10.601562-.332032-1.5625 1.46875-3.203125 2.910157-4.878906 4.277344-3.203126 2.628906-3.671876 7.351563-1.046876 10.558594 1.484376 1.808594 3.636719 2.746094 5.804688 2.746094zm0 0"/><path d="m65.832031 187.429688c1.382813 2.429687 3.917969 3.792968 6.527344 3.792968 1.257813 0 2.527344-.3125 3.699219-.976562 3.601562-2.046875 4.863281-6.625 2.816406-10.226563-1.195312-2.105469-2.449219-4.214843-3.730469-6.273437-2.1875-3.515625-6.8125-4.59375-10.332031-2.40625-3.515625 2.1875-4.59375 6.8125-2.40625 10.328125 1.175781 1.890625 2.328125 3.828125 3.425781 5.761719zm0 0"/><path d="m110.132812 110.574219c.261719 3.96875 3.558594 7.011719 7.480469 7.011719.164063 0 .328125-.003907.492188-.015626 2.488281-.160156 5-.410156 7.464843-.738281 4.105469-.546875 6.992188-4.316406 6.445313-8.421875-.542969-4.105468-4.332031-6.996094-8.421875-6.445312-2.136719.28125-4.308594.496094-6.460938.636718-4.132812.269532-7.265624 3.839844-7 7.972657zm0 0"/><path d="m160.496094 428.734375c-1.308594 3.929687.820312 8.175781 4.75 9.480469 2.097656.699218 4.222656 1.453125 6.320312 2.242187.871094.328125 1.765625.480469 2.644532.480469 3.03125 0 5.886718-1.851562 7.019531-4.855469 1.460937-3.878906-.5-8.203125-4.375-9.664062-2.28125-.855469-4.59375-1.679688-6.875-2.4375-3.933594-1.304688-8.179688.820312-9.484375 4.753906zm0 0"/><path d="m129.097656 422.644531c-.59375 4.097657 2.246094 7.902344 6.347656 8.5 2.1875.3125 4.414063.683594 6.613282 1.089844.464844.085937.921875.128906 1.375.128906 3.546875 0 6.699218-2.523437 7.367187-6.136719.753907-4.070312-1.9375-7.984374-6.007812-8.738281-2.394531-.445312-4.816407-.847656-7.199219-1.191406-4.089844-.589844-7.902344 2.246094-8.496094 6.347656zm0 0"/><path d="m56.109375 145.242188c-3.644531-1.980469-8.195313-.628907-10.171875 3.007812-.429688.789062-.851562 1.574219-1.273438 2.367188-1.460937 2.753906-1.066406 6.125.988282 8.464843.925781 1.054688 1.835937 2.117188 2.730468 3.191407 1.480469 1.777343 3.613282 2.695312 5.761719 2.695312 1.695313 0 3.398438-.570312 4.800781-1.742188 3.152344-2.628906 3.601563-7.296874 1.027344-10.476562.363282-2.96875-1.078125-5.992188-3.863281-7.507812zm0 0"/><path d="m58.835938 381.171875c-3.183594-2.648437-7.914063-2.214844-10.5625.96875-1.414063 1.699219-2.890626 3.40625-4.390626 5.074219-2.769531 3.078125-2.523437 7.820312.554688 10.589844 1.433594 1.292968 3.230469 1.929687 5.019531 1.929687 2.050781 0 4.09375-.839844 5.574219-2.484375 1.628906-1.808594 3.238281-3.664062 4.777344-5.515625 2.648437-3.1875 2.214844-7.914063-.972656-10.5625zm0 0"/><path d="m61.3125 136.695312c1.292969.878907 2.761719 1.304688 4.21875 1.304688 2.394531 0 4.75-1.148438 6.203125-3.277344 1.285156-1.882812 2.597656-3.75 3.898437-5.546875 2.4375-3.351562 1.691407-8.039062-1.660156-10.476562-3.355468-2.433594-8.046875-1.6875-10.476562 1.664062-1.390625 1.917969-2.789063 3.90625-4.15625 5.910157-2.332032 3.421874-1.449219 8.089843 1.972656 10.421874zm0 0"/><path d="m47.113281 406.582031c-3.671875 1.921875-5.085937 6.457031-3.164062 10.125 1.117187 2.128907 2.269531 4.261719 3.429687 6.335938 1.375 2.457031 3.925782 3.839843 6.554688 3.839843 1.238281 0 2.492187-.308593 3.652344-.957031 3.613281-2.019531 4.90625-6.589843 2.886718-10.203125-1.09375-1.957031-2.183594-3.96875-3.234375-5.976562-1.925781-3.671875-6.457031-5.085938-10.125-3.164063zm0 0"/><path d="m64.695312 373.050781c1.230469.761719 2.597657 1.125 3.945313 1.125 2.507813 0 4.960937-1.257812 6.382813-3.546875 1.277343-2.066406 2.53125-4.179687 3.722656-6.277344 2.039062-3.605468.773437-8.179687-2.832032-10.222656-3.605468-2.042968-8.179687-.777344-10.222656 2.828125-1.089844 1.929688-2.242187 3.867188-3.417968 5.765625-2.183594 3.519532-1.097657 8.144532 2.421874 10.328125zm0 0"/><path d="m357.277344 252.207031c-.253906 2.398438-.464844 4.839844-.628906 7.253907-.277344 4.136718 2.847656 7.710937 6.980468 7.988281.171875.011719.339844.019531.511719.019531 3.910156 0 7.207031-3.035156 7.476563-6.996094.148437-2.226562.34375-4.476562.578124-6.6875.4375-4.117187-2.550781-7.8125-6.667968-8.246094-4.121094-.445312-7.816406 2.546876-8.25 6.667969zm0 0"/><path d="m363.722656 219.539062c-.679687 2.320313-1.320312 4.691407-1.910156 7.042969-1.003906 4.019531 1.4375 8.089844 5.457031 9.097657.609375.148437 1.222657.222656 1.824219.222656 3.359375 0 6.417969-2.273438 7.273438-5.679688.539062-2.164062 1.128906-4.339844 1.75-6.472656 1.164062-3.972656-1.113282-8.140625-5.089844-9.300781-3.976563-1.167969-8.144532 1.113281-9.304688 5.089843zm0 0"/><path d="m399.121094 133.582031c-2.210938-3.5-6.84375-4.542969-10.34375-2.332031-3.503906 2.214844-4.546875 6.847656-2.335938 10.347656 1.203125 1.902344 2.398438 3.851563 3.546875 5.789063 1.402344 2.363281 3.894531 3.675781 6.457031 3.675781 1.300782 0 2.621094-.339844 3.820313-1.050781 3.5625-2.117188 4.738281-6.71875 2.625-10.277344-1.222656-2.0625-2.492187-4.128906-3.769531-6.152344zm0 0"/><path d="m379.6875 106.9375c-2.664062-3.175781-7.390625-3.589844-10.566406-.929688-3.171875 2.664063-3.589844 7.394532-.925782 10.566407 1.429688 1.707031 2.871094 3.476562 4.273438 5.257812 1.480469 1.875 3.675781 2.855469 5.894531 2.855469 1.625 0 3.261719-.527344 4.640625-1.613281 3.25-2.5625 3.808594-7.28125 1.242188-10.53125-1.496094-1.898438-3.03125-3.785157-4.558594-5.605469zm0 0"/><path d="m395.320312 177.90625c2.378907 0 4.722657-1.132812 6.179688-3.242188 1.261719-1.824218 2.578125-3.65625 3.914062-5.441406 2.484376-3.3125 1.8125-8.015625-1.5-10.5s-8.015624-1.8125-10.5 1.5c-1.457031 1.941406-2.890624 3.9375-4.261718 5.925782-2.351563 3.410156-1.496094 8.078124 1.914062 10.433593 1.300782.894531 2.78125 1.324219 4.253906 1.324219zm0 0"/><path d="m350.742188 102.738281c-2.132813.082031-4.335938.089844-6.5.027344-4.109376-.101563-7.59375 3.140625-7.710938 7.28125-.121094 4.140625 3.140625 7.59375 7.28125 7.714844 1.085938.03125 2.175781.046875 3.269531.046875 1.417969 0 2.839844-.027344 4.230469-.082032 4.140625-.15625 7.367188-3.640624 7.207031-7.777343-.15625-4.140625-3.628906-7.359375-7.777343-7.210938zm0 0"/><path d="m370.328125 423.179688c.355469-4.125-2.699219-7.761719-6.824219-8.117188-2.398437-.210938-4.84375-.375-7.273437-.488281-4.128907-.195313-7.648438 2.992187-7.851563 7.128906-.199218 4.136719 2.996094 7.652344 7.132813 7.851563 2.238281.109374 4.488281.261718 6.695312.453124.21875.019532.4375.027344.65625.027344 3.847657-.003906 7.125-2.949218 7.464844-6.855468zm0 0"/><path d="m294.488281 87.09375c-1.800781-1.183594-3.585937-2.445312-5.296875-3.746094-3.300781-2.507812-8.003906-1.863281-10.511718 1.4375-2.503907 3.296875-1.859376 8.003906 1.4375 10.507813 1.980468 1.507812 4.042968 2.964843 6.128906 4.335937 1.269531.835938 2.699218 1.234375 4.113281 1.234375 2.441406 0 4.832031-1.1875 6.273437-3.378906 2.277344-3.460937 1.316407-8.113281-2.144531-10.390625zm0 0"/><path d="m297.460938 421.074219c-2.332032.640625-4.683594 1.335937-6.988282 2.066406-3.949218 1.253906-6.136718 5.46875-4.882812 9.417969 1.011718 3.195312 3.964844 5.234375 7.148437 5.234375.75 0 1.515625-.113281 2.269531-.351563 2.121094-.675781 4.285157-1.3125 6.433594-1.90625 3.992188-1.097656 6.339844-5.226562 5.242188-9.21875-1.097656-3.996094-5.222656-6.339844-9.222656-5.242187zm0 0"/><path d="m330.214844 415.121094c-2.410156.21875-4.851563.488281-7.25.800781-4.105469.535156-7 4.300781-6.464844 8.410156.492188 3.777344 3.71875 6.527344 7.425781 6.527344.324219 0 .652344-.019531.980469-.0625 2.207031-.285156 4.449219-.535156 6.667969-.738281 4.125-.375 7.164062-4.023438 6.789062-8.148438s-4.023437-7.1875-8.148437-6.789062zm0 0"/><path d="m321.375 99.3125c-2.0625-.570312-4.144531-1.226562-6.179688-1.945312-3.902343-1.378907-8.191406.671874-9.566406 4.578124-1.378906 3.90625.671875 8.191407 4.578125 9.570313 2.355469.828125 4.769531 1.589844 7.164063 2.253906.667968.183594 1.34375.273438 2.003906.273438 3.289062 0 6.304688-2.175781 7.226562-5.5 1.105469-3.992188-1.230468-8.121094-5.226562-9.230469zm0 0"/><path d="m385.957031 185.195312c-3.699219-1.851562-8.210937-.351562-10.0625 3.351563-1.085937 2.171875-2.144531 4.386719-3.136719 6.585937-1.710937 3.773438-.03125 8.21875 3.738282 9.925782 1.003906.453125 2.054687.667968 3.089844.667968 2.855468 0 5.582031-1.640624 6.835937-4.410156.914063-2.023437 1.886719-4.058594 2.886719-6.054687 1.855468-3.703125.355468-8.210938-3.351563-10.066407zm0 0"/><path d="m406.453125 414.007812c2.78125 0 5.449219-1.550781 6.75-4.21875 1.039063-2.128906 2.070313-4.320312 3.066406-6.515624 1.714844-3.773438.042969-8.21875-3.726562-9.933594-3.773438-1.710938-8.21875-.042969-9.929688 3.726562-.941406 2.074219-1.917969 4.140625-2.898437 6.152344-1.8125 3.722656-.265625 8.210938 3.457031 10.027344 1.0625.515625 2.179687.761718 3.28125.761718zm0 0"/><path d="m193.347656 450.417969c1.949219 1.058593 3.914063 2.175781 5.835938 3.316406 1.199218.710937 2.519531 1.050781 3.824218 1.050781 2.558594 0 5.050782-1.308594 6.453126-3.667968 2.117187-3.5625.945312-8.164063-2.617188-10.28125-2.085938-1.238282-4.21875-2.449219-6.335938-3.601563-3.640624-1.976563-8.191406-.628906-10.171874 3.011719-1.972657 3.640625-.628907 8.195312 3.011718 10.171875zm0 0"/><path d="m204.644531 50.683594c-3.621093-2-8.1875-.683594-10.1875 2.941406-1.042969 1.886719-2.160156 3.761719-3.324219 5.566406-2.246093 3.484375-1.242187 8.125 2.242188 10.367188 1.253906.8125 2.664062 1.195312 4.054688 1.195312 2.464843 0 4.878906-1.210937 6.3125-3.4375 1.347656-2.089844 2.640624-4.257812 3.847656-6.441406 2-3.625.683594-8.1875-2.945313-10.191406zm0 0"/><path d="m396.285156 420.878906c-2.34375-.636718-4.722656-1.230468-7.074218-1.773437-4.035157-.929688-8.0625 1.59375-8.988282 5.628906-.929687 4.039063 1.589844 8.0625 5.628906 8.992187 2.160157.496094 4.351563 1.042969 6.507813 1.628907.65625.179687 1.316406.261719 1.96875.261719 3.300781 0 6.324219-2.195313 7.230469-5.535157 1.085937-4-1.277344-8.121093-5.273438-9.203125zm0 0"/><path d="m221.417969 31.589844c-2.429688.070312-4.878907.191406-7.285157.359375-4.132812.28125-7.25 3.863281-6.96875 7.996093.273438 3.957032 3.566407 6.984376 7.476563 6.984376.171875 0 .347656-.003907.523437-.015626 2.210938-.152343 4.464844-.265624 6.699219-.332031 4.140625-.121093 7.394531-3.578125 7.273438-7.71875-.121094-4.140625-3.589844-7.367187-7.71875-7.273437zm0 0"/><path d="m231.769531 453.957031c-.980469.761719-1.714843 1.714844-2.203125 2.765625-.441406-.359375-.882812-.71875-1.328125-1.070312-3.230469-2.589844-7.953125-2.066406-10.542969 1.167968-2.585937 3.234376-2.0625 7.953126 1.171876 10.542969 1.738281 1.394531 3.472656 2.835938 5.152343 4.292969 1.417969 1.226562 3.167969 1.832031 4.910157 1.832031 2.097656 0 4.1875-.878906 5.667968-2.589843.902344-1.039063 1.464844-2.253907 1.703125-3.515626h.070313c1.609375 0 3.226562-.511718 4.597656-1.574218 1.757812-1.367188 3.566406-2.714844 5.378906-4.011719 3.367188-2.410156 4.140625-7.097656 1.730469-10.464844-2.414063-3.367187-7.097656-4.140625-10.46875-1.730469-1.960937 1.40625-3.925781 2.875-5.839844 4.355469zm0 0"/><path d="m401.910156 370.148438c-2.355468-3.40625-7.027344-4.253907-10.433594-1.898438s-4.257812 7.027344-1.902343 10.433594c1.371093 1.980468 2.804687 3.96875 4.265625 5.914062 1.472656 1.960938 3.722656 2.996094 6 2.996094 1.570312 0 3.148437-.488281 4.5-1.503906 3.3125-2.488282 3.980468-7.1875 1.492187-10.5-1.34375-1.789063-2.664062-3.617188-3.921875-5.441406zm0 0"/><path d="m365.652344 299.378906c4.117187-.460937 7.085937-4.167968 6.625-8.285156-.246094-2.210938-.449219-4.457031-.609375-6.683594-.296875-4.128906-3.878907-7.238281-8.019531-6.941406-4.132813.296875-7.242188 3.890625-6.941407 8.019531.171875 2.417969.394531 4.863281.664063 7.265625.425781 3.835938 3.671875 6.671875 7.445312 6.671875.273438 0 .554688-.015625.835938-.046875zm0 0"/><path d="m363.996094 325.378906c.96875 3.257813 3.953125 5.363282 7.1875 5.363282.707031 0 1.425781-.101563 2.140625-.3125 3.972656-1.179688 6.230469-5.359376 5.050781-9.328126-.632812-2.128906-1.234375-4.308593-1.789062-6.46875-1.027344-4.011718-5.109376-6.4375-9.125-5.402343-4.015626 1.023437-6.433594 5.113281-5.40625 9.125.597656 2.34375 1.253906 4.707031 1.941406 7.023437zm0 0"/><path d="m386.777344 343.515625c-1.71875-3.769531-6.171875-5.429687-9.9375-3.707031-3.769532 1.71875-5.429688 6.167968-3.707032 9.9375 1 2.191406 2.0625 4.402344 3.152344 6.570312 1.316406 2.617188 3.960938 4.128906 6.703125 4.128906 1.136719 0 2.285157-.261718 3.367188-.804687 3.699219-1.863281 5.1875-6.371094 3.328125-10.070313-1.007813-2-1.984375-4.035156-2.90625-6.054687zm0 0"/></svg>