<svg height="512" viewBox="0 0 64 64" width="512" xmlns="http://www.w3.org/2000/svg"><path d="m53.17 38a21.555 21.555 0 0 1 -1.96 4.72l5.54 5.54-8.49 8.49-5.54-5.54a21.555 21.555 0 0 1 -4.72 1.96v3.83a4 4 0 0 1 -4 4h-4a4 4 0 0 1 -4-4v-3.83a21.555 21.555 0 0 1 -4.72-1.96l-5.54 5.54-8.49-8.49 5.54-5.54a21.555 21.555 0 0 1 -1.96-4.72h-7.83v-12h7.83a21.555 21.555 0 0 1 1.96-4.72l-5.54-5.54 8.49-8.49 5.54 5.54a21.555 21.555 0 0 1 4.72-1.96v-7.83h12v7.83a21.555 21.555 0 0 1 4.72 1.96l5.54-5.54 8.49 8.49-5.54 5.54a21.555 21.555 0 0 1 1.96 4.72h7.83v12z" fill="#ffb655"/><circle cx="32" cy="32" fill="#ebbf00" r="15"/><circle cx="32" cy="32" fill="#ffcd00" r="13"/><path d="m36 23-2-10h-4l-2 10h2 4z" fill="#ff4764"/><path d="m30 23h4v16h-4z" fill="#ff3051"/><path d="m27 43v14a4 4 0 0 0 4 4h2a4 4 0 0 0 4-4v-14z" fill="#006df0"/><path d="m39 41a2 2 0 0 0 -2-2h-10a2 2 0 0 0 0 4h10a2 2 0 0 0 2-2z" fill="#004fac"/><path d="m27 43h10v2h-10z" fill="#005ece"/><path d="m42.039 44.145a1 1 0 0 1 -.67-1.743 14 14 0 0 0 -2.8-22.769 1 1 0 1 1 .94-1.766 16 16 0 0 1 3.2 26.021 1 1 0 0 1 -.67.257z"/><path d="m21.961 44.145a1 1 0 0 1 -.67-.257 16 16 0 0 1 3.2-26.021 1 1 0 1 1 .94 1.766 14 14 0 0 0 -2.8 22.769 1 1 0 0 1 -.67 1.743z"/><path d="m61 25h-7.087a22.619 22.619 0 0 0 -1.469-3.541l5.013-5.012a1 1 0 0 0 0-1.414l-8.49-8.49a1 1 0 0 0 -1.414 0l-5.013 5.013a22.473 22.473 0 0 0 -3.54-1.469v-7.087a1 1 0 0 0 -1-1h-12a1 1 0 0 0 -1 1v7.087a22.473 22.473 0 0 0 -3.54 1.469l-5.013-5.013a1 1 0 0 0 -1.414 0l-8.49 8.49a1 1 0 0 0 0 1.414l5.013 5.012a22.619 22.619 0 0 0 -1.469 3.541h-7.087a1 1 0 0 0 -1 1v12a1 1 0 0 0 1 1h7.087a22.568 22.568 0 0 0 1.469 3.54l-5.013 5.013a1 1 0 0 0 0 1.414l8.49 8.49a1 1 0 0 0 1.414 0l5.013-5.013a22.547 22.547 0 0 0 4.268 1.688.923.923 0 0 0 .272.02v2.848a5.006 5.006 0 0 0 5 5h2a5.006 5.006 0 0 0 5-5v-2.848a.926.926 0 0 0 .272-.02 22.547 22.547 0 0 0 4.268-1.688l5.013 5.013a1 1 0 0 0 1.414 0l8.49-8.49a1 1 0 0 0 0-1.414l-5.013-5.013a22.568 22.568 0 0 0 1.469-3.54h7.087a1 1 0 0 0 1-1v-12a1 1 0 0 0 -1-1zm-31.78-3 1.6-8h2.362l1.6 8zm1.78 2h2v14h-2zm6 16a1 1 0 0 1 0 2h-10a1 1 0 0 1 0-2zm-1 17a3 3 0 0 1 -3 3h-2a3 3 0 0 1 -3-3v-13h8zm24-20h-6.83a1 1 0 0 0 -.962.728 20.525 20.525 0 0 1 -1.869 4.5 1 1 0 0 0 .164 1.2l4.833 4.833-7.076 7.075-4.833-4.836a1 1 0 0 0 -1.2-.164 20.453 20.453 0 0 1 -4.227 1.786v-8.306a2.993 2.993 0 0 0 -1-5.816h-2v-14h1a1 1 0 0 0 .98-1.2l-2-10a1 1 0 0 0 -.98-.8h-4a1 1 0 0 0 -.98.8l-2 10a1 1 0 0 0 .98 1.2h1v14h-2a2.993 2.993 0 0 0 -1 5.816v8.306a20.453 20.453 0 0 1 -4.228-1.783 1 1 0 0 0 -1.2.164l-4.832 4.833-7.076-7.076 4.836-4.833a1 1 0 0 0 .164-1.2 20.525 20.525 0 0 1 -1.869-4.5 1 1 0 0 0 -.965-.727h-6.83v-10h6.83a1 1 0 0 0 .962-.728 20.5 20.5 0 0 1 1.869-4.5 1 1 0 0 0 -.164-1.2l-4.833-4.832 7.076-7.076 4.833 4.836a1 1 0 0 0 1.2.164 20.5 20.5 0 0 1 4.5-1.869 1 1 0 0 0 .727-.965v-6.83h10v6.83a1 1 0 0 0 .728.962 20.525 20.525 0 0 1 4.5 1.869 1 1 0 0 0 1.2-.164l4.832-4.833 7.076 7.076-4.836 4.833a1 1 0 0 0 -.164 1.2 20.5 20.5 0 0 1 1.869 4.5 1 1 0 0 0 .965.727h6.83z"/><path d="m32 58a1 1 0 0 0 1-1v-10a1 1 0 0 0 -2 0v10a1 1 0 0 0 1 1z"/><path d="m31 6h2v2h-2z"/><path d="m13.322 13.322h2v2h-2z" transform="matrix(.707 -.707 .707 .707 -5.932 14.322)"/><path d="m6 31h2v2h-2z"/><path d="m13.322 48.678h2v2h-2z" transform="matrix(.707 -.707 .707 .707 -30.933 24.678)"/><path d="m48.678 48.678h2v2h-2z" transform="matrix(.707 -.707 .707 .707 -20.577 49.678)"/><path d="m56 31h2v2h-2z"/><path d="m48.708 13.353h2v2h-2z" transform="matrix(.708 -.706 .706 .708 4.367 39.275)"/></svg>