<svg height="512pt" viewBox="-25 0 511 512" width="512pt" xmlns="http://www.w3.org/2000/svg"><path d="m245 282.5v-30h-30l-20 15 20 15zm0 0" fill="#cb9851"/><path d="m215 282.5h-192l-15-15 15-15h192zm0 0" fill="#e5ac52"/><path d="m179 312.5-50 96 50 96h30v-192zm0 0" fill="#762916"/><path d="m59 312.5h120v192h-120zm0 0" fill="#893a31"/><path d="m350 439.5v50l-30 10v-60zm0 0" fill="#f0651f"/><path d="m440 439.5v60l-30-10v-50zm0 0" fill="#da521b"/><path d="m365 322.5 30 45h30v-30zm0 0" fill="#f9d4a0"/><path d="m335 337.5v30h60v-45zm0 0" fill="#ffebcf"/><path d="m365 247.5 30 90h30v-60zm0 0" fill="#da521b"/><path d="m335 277.5v60h60v-90zm0 0" fill="#f0651f"/><path d="m420 172.5h-30l5 105h30c8.027344-6.03125 13.609375-15.140625 15-25.570312v-59.429688c0-11.050781-8.949219-20-20-20zm0 0" fill="#f69b65"/><path d="m410 192.5v59.429688c-1.390625 10.429687-6.972656 19.539062-15 25.570312h-60c-8.03125-6.03125-13.609375-15.140625-15-25.570312v-59.429688c0-11.050781 8.949219-20 20-20h50c11.050781 0 20 8.949219 20 20zm0 0" fill="#f9b589"/><path d="m357.523438 202.5c0 4.140625-3.355469 7.5-7.5 7.5-4.140626 0-7.5-3.359375-7.5-7.5s3.359374-7.5 7.5-7.5c4.144531 0 7.5 3.359375 7.5 7.5zm0 0" fill="#f69b65"/><path d="m417.5 202.5c0 4.140625-3.359375 7.5-7.5 7.5-4.144531 0-7.5-3.359375-7.5-7.5s3.355469-7.5 7.5-7.5c4.140625 0 7.5 3.359375 7.5 7.5zm0 0" fill="#f38042"/><path d="m416.371094 37.433594c1.492187-5.800782-.011719-12.210938-4.550782-16.753906-4.542968-4.539063-10.957031-6.046876-16.753906-4.550782-3.046875-5.160156-8.644531-8.628906-15.066406-8.628906s-12.023438 3.46875-15.066406 8.628906c-5.800782-1.496094-12.214844.007813-16.753906 4.550782-4.542969 4.542968-6.046876 10.953124-4.550782 16.753906-5.160156 3.042968-8.628906 8.644531-8.628906 15.066406v45h90s0-35.335938 0-45c0-6.421875-3.472656-12.023438-8.628906-15.066406zm0 0" fill="#893a31"/><path d="m380 52.5v101l45-46v-10c0-24.851562-20.148438-45-45-45zm0 0" fill="#f69b65"/><path d="m380 52.5c-24.855469 0-45 20.144531-45 45v10l60 46v-56c0-24.851562-6.714844-45-15-45zm0 0" fill="#f9b589"/><path d="m398.707031 107.5c-1.050781-1.574219-2.300781-3.003906-3.707031-4.261719l-15 69.261719c24.851562 0 45-20.148438 45-45v-20zm0 0" fill="#762916"/><path d="m395 127.5v-24.261719c-3.980469-3.566406-9.234375-5.738281-15-5.738281-7.800781 0-14.671875 3.96875-18.710938 10h-26.289062v20c0 24.851562 20.144531 45 45 45 8.285156 0 15-20.148438 15-45zm0 0" fill="#893a31"/><path d="m275 42.5-15 20 15 20h30v-40zm0 0" fill="#4a333a"/><path d="m215 42.5h60v40h-60zm0 0" fill="#624950"/><g fill="#54231d"><path d="m89 404.539062c-4.144531 0-7.5-3.359374-7.5-7.5v-84.539062c0-4.144531 3.355469-7.5 7.5-7.5s7.5 3.355469 7.5 7.5v84.539062c0 4.140626-3.355469 7.5-7.5 7.5zm0 0"/><path d="m119 391.007812c-4.144531 0-7.5-3.359374-7.5-7.5v-71.007812c0-4.144531 3.355469-7.5 7.5-7.5s7.5 3.355469 7.5 7.5v71.007812c0 4.140626-3.355469 7.5-7.5 7.5zm0 0"/><path d="m179 511.996094c-4.144531 0-7.5-3.355469-7.5-7.5v-47.496094c0-20.679688-16.824219-37.5-37.5-37.5-20.679688 0-37.5 16.820312-37.5 37.5v47.496094c0 4.144531-3.355469 7.5-7.5 7.5s-7.5-3.355469-7.5-7.5v-47.496094c0-28.949219 23.550781-52.5 52.5-52.5s52.5 23.550781 52.5 52.5v47.496094c0 4.144531-3.355469 7.5-7.5 7.5zm0 0"/><path d="m149 511.996094c-4.144531 0-7.5-3.355469-7.5-7.5v-47.496094c0-4.136719-3.363281-7.5-7.5-7.5s-7.5 3.363281-7.5 7.5v47.496094c0 4.144531-3.355469 7.5-7.5 7.5s-7.5-3.355469-7.5-7.5v-47.496094c0-12.40625 10.09375-22.5 22.5-22.5s22.5 10.09375 22.5 22.5v47.496094c0 4.144531-3.355469 7.5-7.5 7.5zm0 0"/><path d="m164 394.75c-12.40625 0-22.5-10.097656-22.5-22.5v-59.75c0-4.144531 3.355469-7.5 7.5-7.5s7.5 3.355469 7.5 7.5v59.75c0 4.132812 3.363281 7.5 7.5 7.5s7.5-3.367188 7.5-7.5v-59.75c0-4.144531 3.355469-7.5 7.5-7.5s7.5 3.355469 7.5 7.5v59.75c0 12.402344-10.09375 22.5-22.5 22.5zm0 0"/></g><path d="m290 260h-37.5v-22.5c0-4.144531-3.359375-7.5-7.5-7.5-4.144531 0-7.5 3.355469-7.5 7.5v7.5h-214.5c-1.988281 0-3.894531.789062-5.304688 2.195312l-15 15c-1.40625 1.40625-2.195312 3.3125-2.195312 5.304688 0 1.988281.789062 3.894531 2.195312 5.304688l15 14.996093c1.40625 1.40625 3.316407 2.199219 5.304688 2.199219h214.5v7.5c0 4.140625 3.355469 7.5 7.5 7.5 4.140625 0 7.5-3.359375 7.5-7.5v-22.5h37.5c4.140625 0 7.5-3.359375 7.5-7.5 0-4.144531-3.359375-7.5-7.5-7.5zm-52.5 15h-211.394531l-7.5-7.5 7.5-7.5h211.394531zm0 0"/><path d="m219 377c4.140625 0 7.5-3.359375 7.5-7.5 0-4.144531-3.359375-7.5-7.5-7.5h-2.5v-49.5c0-4.144531-3.355469-7.5-7.5-7.5h-150c-4.144531 0-7.5 3.355469-7.5 7.5v154.5h-2.5c-4.144531 0-7.5 3.355469-7.5 7.5 0 4.140625 3.355469 7.5 7.5 7.5h2.5v22.496094c0 4.144531 3.355469 7.5 7.5 7.5h150c4.144531 0 7.5-3.355469 7.5-7.5v-97.496094h2.5c4.140625 0 7.5-3.359375 7.5-7.5 0-4.144531-3.359375-7.5-7.5-7.5h-2.5v-15zm-17.5 119.996094h-135v-176.996094h135zm0 0"/><path d="m457.371094 497.382812-9.871094-3.289062v-54.59375c0-4.144531-3.355469-7.5-7.5-7.5h-22.5v-57h7.5c4.144531 0 7.5-3.355469 7.5-7.5v-86.460938c8.117188-7.261718 13.492188-17.316406 14.933594-28.121093.046875-.328125.066406-.660157.066406-.988281v-59.429688c0-15.164062-12.335938-27.5-27.5-27.5h-3.308594c9.746094-9.539062 15.808594-22.824219 15.808594-37.5v-75c0-7.023438-3.011719-13.703125-8.101562-18.390625.285156-6.914063-2.308594-13.765625-7.273438-18.734375-4.96875-4.96875-11.804688-7.550781-18.734375-7.277344-4.6875-5.085937-11.363281-8.097656-18.390625-8.097656s-13.703125 3.011719-18.390625 8.097656c-6.90625-.269531-13.765625 2.3125-18.734375 7.28125s-7.558594 11.816406-7.277344 18.730469c-5.085937 4.6875-8.097656 11.363281-8.097656 18.390625v75c0 14.675781 6.0625 27.960938 15.808594 37.5h-3.308594c-12.5625 0-23.179688 8.46875-26.453125 20h-46.046875v-95h37.5c4.140625 0 7.5-3.359375 7.5-7.5v-40c0-4.144531-3.359375-7.5-7.5-7.5h-90c-4.144531 0-7.5 3.355469-7.5 7.5v40c0 4.140625 3.355469 7.5 7.5 7.5h37.5v65h-7.5c-12.40625 0-22.5 10.09375-22.5 22.5s10.09375 22.5 22.5 22.5h14.671875c.109375.003906.214844.015625.328125.015625.109375 0 .21875-.011719.328125-.015625h52.171875v51.929688c0 .328124.019531.660156.0625.988281 1.441406 10.804687 6.820312 20.859375 14.9375 28.121093v86.460938c0 4.144531 3.355469 7.5 7.5 7.5h7.5v57h-22.5c-4.144531 0-7.5 3.355469-7.5 7.5v54.59375l-9.871094 3.289062c-3.929687 1.308594-6.054687 5.558594-4.746094 9.488282 1.050782 3.140625 3.976563 5.128906 7.117188 5.128906.785156 0 1.585938-.125 2.371094-.386719l14.851562-4.953125c.019532-.003906 30.148438-10.046875 30.148438-10.046875 3.0625-1.019531 5.128906-3.886719 5.128906-7.117187v-114.496094h45v114.496094c0 3.230468 2.0625 6.097656 5.128906 7.117187l30.128906 10.042969c.015626.003906 14.871094 4.957031 14.871094 4.957031.785156.261719 1.585938.386719 2.371094.386719 3.140625 0 6.066406-1.988281 7.113281-5.128906 1.3125-3.929688-.8125-8.179688-4.742187-9.488282zm-204.871094-312.382812h-7.5c-4.136719 0-7.5-3.367188-7.5-7.5 0-4.136719 3.363281-7.5 7.5-7.5h7.5zm-30-110v-25h75v25zm120 409.09375-15 5v-42.09375h15zm75-154.09375h-75v-45h75zm-75-277.5c0-3.5625 1.847656-6.78125 4.941406-8.609375 2.875-1.695313 4.28125-5.09375 3.449219-8.328125-.898437-3.480469.070313-7.058594 2.589844-9.578125 2.523437-2.519531 6.101562-3.488281 9.582031-2.59375 3.230469.832031 6.632812-.574219 8.328125-3.449219 1.828125-3.09375 5.042969-4.941406 8.609375-4.941406 3.5625 0 6.777344 1.847656 8.605469 4.941406 1.695312 2.878906 5.09375 4.28125 8.328125 3.449219 3.480468-.894531 7.0625.074219 9.578125 2.59375 2.523437 2.519531 3.492187 6.101563 2.59375 9.578125-.832031 3.234375.574219 6.632812 3.449219 8.328125 3.097656 1.828125 4.941406 5.046875 4.941406 8.609375v8.308594c-9.535156-9.746094-22.820313-15.808594-37.5-15.808594-14.679688 0-27.960938 6.0625-37.5 15.808594v-8.308594zm0 45c0-20.679688 16.820312-37.5 37.5-37.5 20.675781 0 37.5 16.820312 37.5 37.5v2.5h-15.140625c-5.652344-6.324219-13.746094-10-22.359375-10s-16.707031 3.675781-22.363281 10h-15.136719zm0 30v-12.5h18.789062c2.503907 0 4.839844-1.25 6.234376-3.328125 2.796874-4.179687 7.460937-6.671875 12.476562-6.671875s9.679688 2.492188 12.476562 6.671875c1.390626 2.078125 3.730469 3.328125 6.230469 3.328125h18.792969v12.5c0 20.675781-16.824219 37.5-37.5 37.5-20.679688 0-37.5-16.824219-37.5-37.5zm-4.828125 142.5c-5.449219-4.796875-9.101563-11.433594-10.171875-18.597656v-58.902344c0-6.894531 5.605469-12.5 12.5-12.5h80c6.894531 0 12.5 5.605469 12.5 12.5v58.902344c-1.070312 7.164062-4.726562 13.800781-10.171875 18.597656zm4.828125 90v-15h75v15zm90 129.09375-15-5v-37.09375h15zm0 0"/></svg>