<svg id="Layer_5" enable-background="new 0 0 64 64" height="512" viewBox="0 0 64 64" width="512" xmlns="http://www.w3.org/2000/svg"><path d="m11 24h42v23h-42z" fill="#e6e9ed"/><path d="m58 25v1h-4-3l-2.24-2-16.76-15-16.76 15-2.24 2h-3-4v-1l24.26-22.32c.48-.44 1.1-.68 1.74-.68s1.26.24 1.74.68z" fill="#fcd770"/><path d="m32 9 16.76 15h-33.52z" fill="#ffeaa7"/><circle cx="32" cy="17" fill="#ff826e" r="3"/><path d="m60 58h2c0 2.21-1.79 4-4 4h-10c-2.21 0-4-1.79-4-4v-2-6-16c0-1.1.45-2.1 1.17-2.83.73-.72 1.73-1.17 2.83-1.17v6 8 4 8c0 1.1.9 2 2 2z" fill="#aab2bd"/><path d="m21 46v12h-3.35c.23-.63.35-1.3.35-2 0-3.31-2.69-6-6-6s-6 2.69-6 6c0 .7.12 1.37.35 2h-2.35c-1.1 0-2-.9-2-2v-8c0-1.1.9-2 2-2h6 7v-8c0-2.21 1.79-4 4-4h13.38c1.59 0 3.03.94 3.67 2.4l5.95 13.6h-6-1v-4l-2.76-7.35c-.14-.39-.52-.65-.93-.65h-11.31c-.55 0-1 .45-1 1z" fill="#ff826e"/><path d="m37 46v4h-7l-2 8h-7v-12z" fill="#fc6e51"/><path d="m34.24 38.65 2.76 7.35h-16v-7c0-.55.45-1 1-1h11.31c.41 0 .79.26.93.65z" fill="#69d6f4"/><path d="m18 56c0 .7-.12 1.37-.35 2-.81 2.33-3.04 4-5.65 4s-4.84-1.67-5.65-4c-.23-.63-.35-1.3-.35-2 0-3.31 2.69-6 6-6s6 2.69 6 6z" fill="#838f9b"/><path d="m38 50c3.31 0 6 2.69 6 6s-2.69 6-6 6-6-2.69-6-6 2.69-6 6-6z" fill="#838f9b"/><circle cx="12" cy="56" fill="#ccd1d9" r="2"/><circle cx="38" cy="56" fill="#ccd1d9" r="2"/><path d="m60 58h-10c-1.105 0-2-.895-2-2v-8c0-1.105.895-2 2-2h10c1.105 0 2 .895 2 2v8c0 1.105-.895 2-2 2z" fill="#cf9e76"/><path d="m60 46h-10c-1.105 0-2-.895-2-2v-8c0-1.105.895-2 2-2h10c1.105 0 2 .895 2 2v8c0 1.105-.895 2-2 2z" fill="#cf9e76"/><path d="m52 46h6v4h-6z" fill="#fcd770"/><path d="m54 34h4v4h-6v-4z" fill="#fcd770"/><path d="m38 53c-1.654 0-3 1.346-3 3s1.346 3 3 3 3-1.346 3-3-1.346-3-3-3zm0 4c-.552 0-1-.448-1-1s.448-1 1-1 1 .448 1 1-.448 1-1 1z"/><path d="m12 53c-1.654 0-3 1.346-3 3s1.346 3 3 3 3-1.346 3-3-1.346-3-3-3zm0 4c-.552 0-1-.448-1-1s.448-1 1-1 1 .448 1 1-.448 1-1 1z"/><path d="m63 36c0-1.654-1.346-3-3-3h-5v-6h4v-2.438l-24.587-22.622c-1.318-1.213-3.508-1.213-4.826 0l-24.587 22.622v2.438h4v18h-5c-1.654 0-3 1.346-3 3v8c0 1.654 1.346 3 3 3h1.685c1.126 2.361 3.53 4 6.315 4s5.188-1.639 6.315-4h10.466l2-8h2.329c-1.3 1.272-2.11 3.042-2.11 5 0 3.859 3.141 7 7 7 2.264 0 4.275-1.086 5.555-2.758.826 1.628 2.498 2.758 4.445 2.758h10c2.757 0 5-2.243 5-5v-1h-.184c.112-.314.184-.648.184-1v-8c0-.771-.301-1.468-.78-2 .48-.532.78-1.229.78-2zm-2 0v8c0 .552-.448 1-1 1h-10c-.552 0-1-.448-1-1v-8c0-.552.448-1 1-1h1v4h8v-4h1c.552 0 1 .448 1 1zm-8 11h4v2h-4zm0-12h4v2h-4zm-22.06-31.587c.58-.533 1.539-.533 2.119 0l23.464 21.587h-5.142l-19.381-17.342-19.382 17.342h-5.141zm15.208 19.587h-28.296l14.148-12.658zm-35.148 4h2.382l2.235-2h32.766l2.235 2h2.382v6h-3c-.352 0-.686.072-1 .184v-4.184h-1c-2.757 0-5 2.243-5 5v11.22l-4.035-9.224c-.797-1.82-2.595-2.996-4.581-2.996h-13.384c-2.757 0-5 2.243-5 5v7h-5zm32 24.111c-.037-.037-.073-.074-.111-.111h.111zm-31 9.889c-2.757 0-5-2.243-5-5s2.243-5 5-5 5 2.243 5 5-2.243 5-5 5zm0-12c-3.859 0-7 3.141-7 7 0 .34.033.672.08 1h-1.08c-.552 0-1-.448-1-1v-8c0-.552.448-1 1-1h14v-9c0-1.654 1.346-3 3-3h13.384c1.191 0 2.271.706 2.749 1.797l5.338 12.203h-4.471v-3.182l-2.82-7.521c-.292-.776-1.045-1.297-1.873-1.297h-11.307c-1.103 0-2 .897-2 2v18h-1.08c.047-.328.08-.66.08-1 0-3.859-3.141-7-7-7zm23.557-4h-13.557v-6h11.307zm-6.338 4-2 8h-5.219v-10h14v2zm8.781 12c-2.757 0-5-2.243-5-5s2.243-5 5-5 5 2.243 5 5-2.243 5-5 5zm20 0h-10c-1.654 0-3-1.346-3-3v-24c0-1.304.836-2.416 2-2.829v4.829 8 4 8c0 1.654 1.346 3 3 3h10 .829c-.413 1.164-1.525 2-2.829 2zm-8-4c-.552 0-1-.448-1-1v-8c0-.552.448-1 1-1h1v4h8v-4h1c.552 0 1 .448 1 1v8c0 .552-.448 1-1 1z"/><path d="m28 17c0 2.206 1.794 4 4 4s4-1.794 4-4-1.794-4-4-4-4 1.794-4 4zm6 0c0 1.103-.897 2-2 2s-2-.897-2-2 .897-2 2-2 2 .897 2 2z"/></svg>