<svg height="496pt" viewBox="-7 0 496 496.688" width="496pt" xmlns="http://www.w3.org/2000/svg"><path d="m344.929688 396.992188-63.523438-18.320313v-16.105469c8.457031-6.789062 15.144531-15.679687 19.289062-25.878906h4.710938c17.648438 0 32-14.351562 32-32v-48c0-52.933594-43.0625-96-96-96-52.933594 0-96 43.066406-96 96v48c0 17.648438 14.355469 32 32 32h4.714844c4.144531 10.199219 10.832031 19.089844 19.285156 25.878906v16.105469l-63.519531 18.320313c-23.832031 6.878906-40.480469 29-40.480469 53.808593v45.886719h288v-45.886719c0-24.808593-16.644531-46.929687-40.476562-53.808593zm-57.121094.175781-10.792969 37.761719-23.632813-18.90625 22.34375-22.34375zm-49.457032 67.519531h6.113282l8 16h-22.113282zm7.746094-16h-9.378906l-10-10 14.6875-11.75 14.691406 11.75zm59.308594-128h-.550781c.328125-2.625.550781-5.289062.550781-8v-24c8.824219 0 16 7.175781 16 16s-7.175781 16-16 16zm-64-144c44.113281 0 80 35.886719 80 80v20.449219c-4.726562-2.753907-10.140625-4.449219-16-4.449219v-4.582031c0-15.121094-12.300781-27.417969-27.414062-27.417969-4.222657 0-8.464844 1-12.265626 2.898438l-17.757812 8.878906c-5.527344 2.757812-11.710938 4.222656-17.898438 4.222656h-28.664062c-10.414062 0-19.214844 6.710938-22.527344 16h-1.472656c-5.855469 0-11.269531 1.695312-16 4.449219v-20.449219c0-44.113281 35.890625-80 80-80zm-64 144c-8.820312 0-16-7.175781-16-16s7.179688-16 16-16v24c0 2.710938.226562 5.375.554688 8zm16-8v-32c0-4.414062 3.59375-8 8-8h28.664062c8.65625 0 17.3125-2.046875 25.050782-5.910156l17.757812-8.875c1.585938-.796875 3.34375-1.207032 5.113282-1.207032 6.296874-.007812 11.414062 5.113282 11.414062 11.410157v44.582031c0 26.472656-21.527344 48-48 48-26.46875 0-48-21.527344-48-48zm48 64c8.488281 0 16.585938-1.695312 24-4.710938v9.398438l-24 24-24-24v-9.398438c7.417969 3.015626 15.515625 4.710938 24 4.710938zm-34.316406 16.992188 22.34375 22.34375-23.632813 18.90625-10.792969-37.761719zm-93.683594 57.121093c0-17.710937 11.890625-33.511719 28.914062-38.433593l37.3125-10.765626 17.382813 60.847657 17.128906-13.707031 9.527344 9.523437-11.207031 22.421875h-51.058594v-24h-16v24h-32zm256 29.886719h-32v-24h-16v24h-51.054688l-11.207031-22.421875 9.527344-9.523437 17.128906 13.707031 17.382813-60.847657 37.3125 10.765626c17.023437 4.914062 28.910156 20.722656 28.910156 38.433593zm0 0"/><path d="m203.792969 98.65625 37.613281-23.558594 37.617188 23.558594-12.328126-41.945312 23.769532-19.847657-33.722656-8.773437-15.335938-28.089844-15.335938 28.089844-33.71875 8.773437 23.769532 19.847657zm33-56.824219 4.613281-8.457031 4.617188 8.449219 10.328124 2.6875-7.953124 6.640625 3.394531 11.558594-10.386719-6.496094-10.382812 6.503906 3.390624-11.558594-7.949218-6.640625zm0 0"/><path d="m337.40625 48-15.335938 28.089844-33.71875 8.773437 23.769532 19.847657-12.328125 41.945312 37.613281-23.558594 37.617188 23.558594-12.328126-41.945312 23.769532-19.847657-33.722656-8.773437zm10.386719 62.71875-10.386719-6.503906-10.382812 6.503906 3.390624-11.558594-7.949218-6.640625 10.328125-2.6875 4.613281-8.457031 4.617188 8.449219 10.328124 2.6875-7.953124 6.640625zm0 0"/><path d="m482.472656 36.855469-33.71875-8.777344-15.347656-28.078125-15.335938 28.089844-33.71875 8.773437 23.769532 19.847657-12.328125 41.945312 37.613281-23.558594 37.617188 23.558594-12.328126-41.945312zm-38.679687 25.863281-10.386719-6.503906-10.382812 6.503906 3.390624-11.558594-7.949218-6.640625 10.328125-2.6875 4.613281-8.457031 4.617188 8.449219 10.328124 2.6875-7.953124 6.640625zm0 0"/><path d="m107.792969 146.65625 37.613281-23.558594 37.617188 23.558594-12.328126-41.945312 23.769532-19.847657-33.722656-8.773437-15.335938-28.089844-15.335938 28.089844-33.71875 8.773437 23.769532 19.847657zm33-56.824219 4.613281-8.457031 4.617188 8.449219 10.328124 2.6875-7.953124 6.640625 3.394531 11.558594-10.386719-6.496094-10.382812 6.503906 3.390624-11.558594-7.949218-6.640625zm0 0"/><path d="m49.40625 75.097656 37.617188 23.558594-12.328126-41.945312 23.769532-19.847657-33.722656-8.773437-15.335938-28.089844-15.335938 28.089844-33.726562 8.765625 23.769531 19.847656-12.328125 41.945313zm-4.613281-33.265625 4.613281-8.457031 4.617188 8.449219 10.328124 2.6875-7.953124 6.640625 3.394531 11.558594-10.386719-6.496094-10.382812 6.503906 3.390624-11.558594-7.949218-6.640625zm0 0"/><path d="m441.40625 152.6875c0-13.230469-10.765625-24-24-24-13.230469 0-24 10.769531-24 24 0 13.234375 10.769531 24 24 24 1.160156 0 2.265625-.183594 3.378906-.34375 13.453125 27.304688 20.621094 57.695312 20.621094 88.34375 0 32.511719-7.972656 64.800781-23.070312 93.34375l14.152343 7.488281c16.296875-30.855469 24.917969-65.710937 24.917969-100.832031 0-33.222656-7.804688-66.175781-22.445312-95.75 3.96875-4.28125 6.445312-9.960938 6.445312-16.25zm-32 0c0-4.40625 3.59375-8 8-8 4.410156 0 8 3.59375 8 8 0 4.410156-3.589844 8-8 8-4.40625 0-8-3.589844-8-8zm0 0"/><path d="m65.40625 352.6875c-1.160156 0-2.261719.183594-3.375.34375-13.457031-27.304688-20.625-57.695312-20.625-88.34375 0-32.519531 7.976562-64.800781 23.074219-93.34375l-14.144531-7.480469c-16.304688 30.839844-24.929688 65.703125-24.929688 100.824219 0 33.222656 7.808594 66.167969 22.441406 95.761719-3.960937 4.277343-6.441406 9.957031-6.441406 16.238281 0 13.234375 10.769531 24 24 24 13.234375 0 24-10.765625 24-24 0-13.230469-10.765625-24-24-24zm0 32c-4.40625 0-8-3.582031-8-8 0-4.414062 3.59375-8 8-8 4.410156 0 8 3.585938 8 8 0 4.417969-3.589844 8-8 8zm0 0"/></svg>