<?xml version="1.0" encoding="iso-8859-1"?>
<!-- Generator: Adobe Illustrator 19.0.0, SVG Export Plug-In . SVG Version: 6.00 Build 0)  -->
<svg version="1.1" id="Capa_1" xmlns="http://www.w3.org/2000/svg" xmlns:xlink="http://www.w3.org/1999/xlink" x="0px" y="0px"
	 viewBox="0 0 464.768 464.768" style="enable-background:new 0 0 464.768 464.768;" xml:space="preserve">
<g>
	<path style="fill:#FBCC34;" d="M128.384,320l22.248,44.768l49.752,7.176l-36,34.848l8.496,57.976l-44.496-32l-44.496,32
		l8.496-57.976l-36-34.848l49.752-7.176L128.384,320z"/>
	<path style="fill:#FBCC34;" d="M72.384,128l22.248,44.768l49.752,7.176l-36,34.848L116.88,264l-44.496-23.232L27.888,264
		l8.496-49.208l-36-34.848l49.752-7.176L72.384,128z"/>
	<path style="fill:#FBCC34;" d="M392.384,128l22.248,44.768l49.752,7.176l-36,34.848L436.88,264l-44.496-23.232L347.888,264
		l8.496-49.208l-36-34.848l49.752-7.176L392.384,128z"/>
	<path style="fill:#FBCC34;" d="M232.384,0l22.248,44.768l49.752,7.176l-36,34.848L276.88,136l-44.496-23.232L187.888,136
		l8.496-49.208l-36-34.848l49.752-7.176L232.384,0z"/>
	<path style="fill:#FBCC34;" d="M336.384,320l22.248,44.768l49.752,7.176l-36,34.848l8.496,57.976l-44.496-32l-44.496,32
		l8.496-57.976l-36-34.848l49.752-7.176L336.384,320z"/>
</g>
<circle style="fill:#ED1C24;" cx="232.384" cy="256.768" r="88"/>
<path style="fill:#06AAE9;" d="M184.384,296.768h32v-24h32v24h32v-80h-32v24h-32v-24h-32V296.768z"/>
<g>
</g>
<g>
</g>
<g>
</g>
<g>
</g>
<g>
</g>
<g>
</g>
<g>
</g>
<g>
</g>
<g>
</g>
<g>
</g>
<g>
</g>
<g>
</g>
<g>
</g>
<g>
</g>
<g>
</g>
</svg>
