<svg height="512" viewBox="0 0 64 64" width="512" xmlns="http://www.w3.org/2000/svg"><path d="m42.9 48a9.975 9.975 0 0 0 -6.9-8.18v21.18h7v-11.65a8.582 8.582 0 0 0 -.1-1.35z" fill="#ffb655"/><path d="m36 39.82v21.18h-26v-21.18c.01-.01.01-.01.02-.01l4.98-1.56v7.75a2.006 2.006 0 0 0 2 2h12a2.006 2.006 0 0 0 2-2v-7.75l4.98 1.56c.01 0 .01 0 .02.01z" fill="#3d9ae2"/><path d="m58 48h3v4h-3z" fill="#898890"/><path d="m58 52v5h-6v-5-4-5h6v5z" fill="#acabb1"/><path d="m44.29 16.72a2.012 2.012 0 0 1 1.62 2.32 1.992 1.992 0 0 1 -2.32 1.62c-1.09-.19-3.59-2.66-3.59-2.66s3.2-1.47 4.29-1.28z" fill="#d1d3d4"/><path d="m44.6 8.14a2 2 0 0 1 -.25 2.82c-.85.71-4.35 1.04-4.35 1.04s.93-3.39 1.78-4.1a2.008 2.008 0 0 1 2.82.24z" fill="#d1d3d4"/><path d="m42.9 48h-4.9v4h5 9v-4z" fill="#898890"/><path d="m36 43h-4v5 4 5h4 2v-5-4-5z" fill="#acabb1"/><path d="m34 17a2 2 0 1 1 -1 3.73v-3.46a2 2 0 0 1 1-.27z" fill="#ffb655"/><path d="m33 20.73v2.27a10 10 0 0 1 -20 0v-7h20z" fill="#ffc477"/><path d="m33 13v3h-20v-3c0-.34.02-.67.05-1h19.9c.03.33.05.66.05 1z" fill="#ff5023"/><path d="m32.95 12h-19.9a10 10 0 0 1 19.9 0z" fill="#57565c"/><path d="m29 48h3v4h-3z" fill="#898890"/><path d="m31 38.25v7.75a2.006 2.006 0 0 1 -2 2h-12a2.006 2.006 0 0 1 -2-2v-7.75l4-1.25v-4.84a9.944 9.944 0 0 0 8 0v4.84z" fill="#ffc477"/><path d="m13 17.27v3.46a2 2 0 1 1 0-3.46z" fill="#ffb655"/><path d="m10 39.82v21.18h-7v-11.65a9.981 9.981 0 0 1 7-9.53z" fill="#ffb655"/><path d="m6.87 4.07c.91.63 2.13 3.93 2.13 3.93s-3.52-.02-4.42-.66a2 2 0 1 1 2.29-3.27z" fill="#d1d3d4"/><path d="m8 13s-1.22 3.3-2.13 3.93a2 2 0 0 1 -2.29-3.27c.9-.64 4.42-.66 4.42-.66z" fill="#d1d3d4"/><path d="m27 32.16v2a9.944 9.944 0 0 1 -8 0v-2a9.944 9.944 0 0 0 8 0z" fill="#ffb655"/><path d="m13 16h20v2h-20z" fill="#ffb655"/><path d="m17 19h2v2h-2z"/><path d="m27 19h2v2h-2z"/><path d="m27 25h-2a2 2 0 0 1 -4 0h-2a4 4 0 0 0 8 0z"/><path d="m61 47h-2v-4a1 1 0 0 0 -1-1h-6a1 1 0 0 0 -1 1v4h-7.29a11 11 0 0 0 -7.363-8.119c-.022-.009-.045-.017-.068-.024l-8.279-2.592v-3.479a11 11 0 0 0 6-9.786v-1a3 3 0 0 0 0-6v-3a11 11 0 0 0 -22 0v3a3 3 0 0 0 0 6v1a11 11 0 0 0 6 9.786v3.479l-8.279 2.591-.067.023a10.929 10.929 0 0 0 -7.654 10.471v11.65a1 1 0 0 0 1 1h40a1 1 0 0 0 1-1v-8h7v4a1 1 0 0 0 1 1h6a1 1 0 0 0 1-1v-4h2a1 1 0 0 0 1-1v-4a1 1 0 0 0 -1-1zm-19.328 0h-2.672v-4a.97.97 0 0 0 -.1-.423 9 9 0 0 1 2.772 4.423zm-8.672 9v-12h4v12zm4-14.694a8.82 8.82 0 0 1 1.212.737.939.939 0 0 0 -.212-.043h-1zm-5-26.306h-18v-2h18zm3 4a1 1 0 0 1 -1 1v-2a1 1 0 0 1 1 1zm-12-15a9.01 9.01 0 0 1 8.768 7h-17.536a9.01 9.01 0 0 1 8.768-7zm-12 15a1 1 0 0 1 1-1v2a1 1 0 0 1 -1-1zm3 4v-6h18v6a9 9 0 0 1 -18 0zm5.3 14.955a1 1 0 0 0 .7-.955v-3.426a10.776 10.776 0 0 0 6 0v3.426a1 1 0 0 0 .7.955l3.3 1.032v2.013h2v-1.388l3 .939v1.449h-3a1 1 0 0 0 -1 1v4h-2a1 1 0 0 0 -1 1v4a1 1 0 0 0 1 1h2v4a1 1 0 0 0 1 1h3v2h-24v-19.449l3-.939v6.388a3 3 0 0 0 3 3h9v-2h-9a1 1 0 0 1 -1-1v-7.013zm11.7 13.045h-1v-2h1zm-27-1.65a8.934 8.934 0 0 1 5-8.056v18.706h-5zm38 10.65h-5v-2h1a1 1 0 0 0 1-1v-4h3zm-3-9v-2h12v2zm18 5h-4v-12h4zm3-5h-1v-2h1z"/><path d="m40 13h.094c1.146-.108 3.919-.447 4.9-1.269a3 3 0 1 0 -3.856-4.6c-.979.822-1.8 3.494-2.1 4.6a1 1 0 0 0 .962 1.269zm2.422-4.337a1 1 0 0 1 1.286 1.531 7.49 7.49 0 0 1 -2.288.615 7.452 7.452 0 0 1 1.002-2.146z"/><path d="m44.46 15.74c-1.253-.22-3.83.871-4.877 1.351a1 1 0 0 0 -.286 1.62c.82.81 2.862 2.716 4.121 2.938a3.046 3.046 0 0 0 .528.046 3 3 0 0 0 .514-5.955zm-.694 3.939a7.478 7.478 0 0 1 -1.941-1.357 7.569 7.569 0 0 1 2.288-.612 1 1 0 1 1 -.347 1.969z"/><path d="m4 8.163c1.05.737 3.842.83 4.994.837h.006a1 1 0 0 0 .938-1.348c-.4-1.08-1.447-3.67-2.494-4.4a3 3 0 0 0 -3.444 4.911zm.9-3.031a1 1 0 0 1 1.4-.246 7.444 7.444 0 0 1 1.181 2.051 7.465 7.465 0 0 1 -2.332-.413 1 1 0 0 1 -.249-1.392z"/><path d="m4.728 18.293a2.973 2.973 0 0 0 1.716-.542c1.047-.733 2.093-3.323 2.494-4.4a1 1 0 0 0 -.119-.922 1.055 1.055 0 0 0 -.825-.429c-1.152.007-3.944.1-4.991.836h-.003a3 3 0 0 0 1.726 5.456zm-.579-3.817a7.474 7.474 0 0 1 2.333-.413 7.487 7.487 0 0 1 -1.182 2.051 1 1 0 0 1 -1.148-1.638z"/></svg>