<svg id="Capa_1" enable-background="new 0 0 512 512" height="512" viewBox="0 0 512 512" width="512" xmlns="http://www.w3.org/2000/svg"><path d="m126.489 163.684v-108.424 423.866c0 12.635 10.149 22.874 22.666 22.874h303.365c12.522 0 22.666-10.24 22.666-22.874v-423.866c0-24.998-20.073-45.26-44.839-45.26h-348.696" fill="#dfedff"/><path d="m126.489 55.26c0-24.993-20.073-45.26-44.838-45.26-24.761 0-44.839 20.266-44.839 45.26v115.152c0 22.75 18.371 41.193 41.033 41.193h48.644z" fill="#a0c8ff"/><g fill="#faf7f5"><path d="m171.365 150.913-12.121-12.12c-7.493-7.493-19.642-7.493-27.135 0-7.493 7.493-7.493 19.641 0 27.134l39.256 39.254 39.256-39.254c7.493-7.493 7.493-19.641 0-27.134-7.493-7.493-19.642-7.493-27.136 0z"/><path d="m430.311 150.913-12.121-12.12c-7.493-7.493-19.642-7.493-27.136 0-7.493 7.493-7.493 19.641 0 27.134l39.256 39.254 39.256-39.254c7.493-7.493 7.493-19.641 0-27.134-7.493-7.493-19.642-7.493-27.136 0z"/><path d="m300.838 150.913-12.121-12.12c-7.493-7.493-19.642-7.493-27.136 0-7.493 7.493-7.493 19.641 0 27.134l39.256 39.254 39.256-39.254c7.493-7.493 7.493-19.641 0-27.134-7.493-7.493-19.642-7.493-27.136 0z"/><path d="m171.365 274.571-12.121-12.12c-7.493-7.493-19.642-7.493-27.135 0-7.493 7.493-7.493 19.641 0 27.134l39.256 39.254 39.256-39.254c7.493-7.493 7.493-19.641 0-27.134-7.493-7.493-19.642-7.493-27.136 0z"/><path d="m430.311 274.571-12.121-12.12c-7.493-7.493-19.642-7.493-27.136 0-7.493 7.493-7.493 19.641 0 27.134l39.256 39.254 39.256-39.254c7.493-7.493 7.493-19.641 0-27.134-7.493-7.493-19.642-7.493-27.136 0z"/><path d="m300.838 274.571-12.121-12.12c-7.493-7.493-19.642-7.493-27.136 0-7.493 7.493-7.493 19.641 0 27.134l39.256 39.254 39.256-39.254c7.493-7.493 7.493-19.641 0-27.134-7.493-7.493-19.642-7.493-27.136 0z"/><path d="m171.365 398.23-12.121-12.12c-7.493-7.493-19.642-7.493-27.135 0-7.493 7.493-7.493 19.641 0 27.134l39.256 39.254 39.256-39.254c7.493-7.493 7.493-19.641 0-27.134-7.493-7.493-19.642-7.493-27.136 0z"/><path d="m430.311 398.23-12.121-12.12c-7.493-7.493-19.642-7.493-27.136 0-7.493 7.493-7.493 19.641 0 27.134l39.256 39.254 39.256-39.254c7.493-7.493 7.493-19.641 0-27.134-7.493-7.493-19.642-7.493-27.136 0z"/><path d="m300.838 398.23-12.121-12.12c-7.493-7.493-19.642-7.493-27.136 0-7.493 7.493-7.493 19.641 0 27.134l39.256 39.254 39.256-39.254c7.493-7.493 7.493-19.641 0-27.134-7.493-7.493-19.642-7.493-27.136 0z"/></g><path d="m424.49 78.569c-4.249 0-8.084-2.787-9.463-6.789-1.366-3.965.004-8.523 3.313-11.094 3.135-2.437 7.531-2.781 11.004-.859 3.638 2.014 5.702 6.265 5.006 10.37-.807 4.758-5.017 8.372-9.86 8.372z"/><path d="m430.349 0h-348.698c-30.238 0-54.838 24.789-54.838 55.26v115.151c0 28.228 22.894 51.192 51.033 51.192h38.644v257.523c0 18.127 14.654 32.874 32.666 32.874h303.365c18.013 0 32.667-14.747 32.667-32.874v-423.866c0-30.471-24.601-55.26-54.839-55.26zm-352.503 201.604c-17.111 0-31.033-13.993-31.033-31.192v-115.152c0-19.443 15.628-35.26 34.838-35.26s34.838 15.817 34.838 35.26v146.344zm374.675 290.396h-303.366c-6.984 0-12.666-5.775-12.666-12.874v-47.36l27.805 27.803c1.953 1.952 4.512 2.929 7.071 2.929 2.56 0 5.118-.976 7.071-2.929l39.255-39.254c5.514-5.513 8.55-12.842 8.55-20.638 0-7.797-3.036-15.126-8.549-20.639-11.382-11.38-29.898-11.379-41.276 0l-5.051 5.05-5.049-5.05c-8.055-8.055-19.684-10.408-29.827-7.062v-63.869l27.805 27.803c1.953 1.952 4.512 2.929 7.071 2.929 2.56 0 5.118-.977 7.071-2.929l39.255-39.254c5.514-5.513 8.55-12.843 8.55-20.639s-3.036-15.126-8.55-20.639c-11.378-11.377-29.896-11.379-41.275 0l-5.051 5.05-5.05-5.05c-8.054-8.054-19.683-10.406-29.826-7.061v-63.871l27.805 27.803c1.953 1.952 4.512 2.929 7.071 2.929 2.56 0 5.118-.977 7.071-2.929l39.255-39.254c5.514-5.513 8.55-12.842 8.55-20.639s-3.036-15.126-8.549-20.638c-11.382-11.38-29.898-11.379-41.276 0l-5.051 5.049-5.049-5.049c-8.055-8.053-19.684-10.407-29.827-7.061v-46.09h242.556c5.523 0 10-4.478 10-10s-4.477-10-10-10h-242.556v-3.307c0-13.391-4.752-25.685-12.645-35.26h306.504c19.21 0 34.839 15.817 34.839 35.26v69.401c-10.144-3.346-21.772-.993-29.826 7.061l-5.05 5.049-5.05-5.049c-11.381-11.379-29.898-11.381-41.277 0-5.514 5.512-8.55 12.842-8.55 20.638s3.036 15.126 8.549 20.639l39.258 39.254c1.952 1.952 4.511 2.929 7.07 2.929 2.56 0 5.118-.977 7.071-2.929l27.805-27.803v63.871c-10.144-3.346-21.773-.992-29.827 7.061l-5.049 5.05-5.051-5.05c-11.379-11.38-29.896-11.378-41.277 0-11.38 11.38-11.38 29.897 0 41.277l39.258 39.254c1.952 1.952 4.511 2.929 7.07 2.929 2.56 0 5.118-.977 7.071-2.929l27.805-27.803v63.87c-10.144-3.347-21.773-.993-29.827 7.062l-5.049 5.05-5.05-5.05c-11.381-11.381-29.897-11.381-41.278 0-11.38 11.38-11.38 29.896 0 41.276l39.258 39.254c1.952 1.952 4.511 2.929 7.07 2.929 2.56 0 5.118-.976 7.071-2.929l27.805-27.803v47.36c.001 7.096-5.682 12.871-12.666 12.871zm-313.34-98.818c1.791-1.791 4.144-2.687 6.497-2.687s4.705.896 6.496 2.687l12.12 12.12c3.906 3.904 10.237 3.905 14.142 0l12.122-12.12c3.582-3.582 9.409-3.582 12.993 0 1.735 1.735 2.69 4.042 2.69 6.496 0 2.453-.955 4.76-2.691 6.495l-32.185 32.184-32.185-32.184c-3.581-3.582-3.581-9.409.001-12.991zm-.001-123.66c1.792-1.791 4.145-2.687 6.498-2.687s4.705.896 6.496 2.687l12.12 12.12c3.906 3.904 10.237 3.906 14.142 0l12.121-12.12c3.582-3.582 9.412-3.582 12.994 0 1.735 1.735 2.69 4.042 2.69 6.496s-.955 4.761-2.691 6.496l-32.185 32.184-32.185-32.184c-3.581-3.581-3.581-9.41 0-12.992zm-2.691-117.163c0-2.453.956-4.76 2.691-6.495 1.791-1.791 4.144-2.687 6.496-2.687 2.354 0 4.706.895 6.498 2.687l12.12 12.119c3.904 3.906 10.236 3.906 14.141 0l12.122-12.119c3.58-3.581 9.409-3.584 12.993.001 1.735 1.734 2.69 4.041 2.69 6.494 0 2.454-.955 4.761-2.691 6.496l-32.185 32.184-32.185-32.184c-1.734-1.735-2.69-4.041-2.69-6.496zm328.699 0c0 2.454-.956 4.761-2.691 6.496l-32.185 32.184-32.185-32.184c-1.735-1.735-2.691-4.042-2.691-6.496 0-2.453.956-4.76 2.691-6.495 1.791-1.791 4.143-2.687 6.496-2.687s4.706.895 6.498 2.687l12.121 12.119c3.904 3.906 10.236 3.904 14.141 0l12.121-12.119c3.583-3.583 9.411-3.581 12.994 0 1.733 1.736 2.69 4.042 2.69 6.495zm-2.692 130.156-32.185 32.184-32.185-32.184c-3.582-3.582-3.582-9.41-.001-12.992 1.792-1.791 4.145-2.687 6.498-2.687s4.706.896 6.497 2.687l12.121 12.12c3.904 3.904 10.235 3.904 14.142 0l12.119-12.12c3.582-3.582 9.41-3.583 12.994 0 3.582 3.581 3.582 9.41 0 12.992zm0 123.658-32.185 32.184-32.185-32.184c-3.582-3.582-3.582-9.409 0-12.991 1.791-1.791 4.143-2.687 6.496-2.687s4.706.896 6.498 2.687l12.121 12.12c3.904 3.904 10.235 3.904 14.142 0l12.12-12.12c3.58-3.582 9.409-3.584 12.993 0 3.582 3.582 3.582 9.409 0 12.991z"/><path d="m300.838 462.498c-2.56 0-5.118-.975-7.071-2.929l-39.256-39.254c-11.38-11.38-11.38-29.896 0-41.276 11.38-11.381 29.896-11.381 41.278 0l5.049 5.05 5.051-5.05c11.38-11.381 29.897-11.379 41.277 0 11.38 11.38 11.38 29.896 0 41.276l-39.257 39.254c-1.953 1.953-4.512 2.929-7.071 2.929zm-25.688-72.003c-2.353 0-4.706.896-6.497 2.687-3.582 3.582-3.582 9.409 0 12.991l32.185 32.184 32.187-32.184c3.581-3.582 3.581-9.409-.001-12.991-3.583-3.584-9.412-3.582-12.993 0l-12.122 12.12c-3.904 3.905-10.235 3.904-14.142 0l-12.12-12.12c-1.792-1.791-4.144-2.687-6.497-2.687z"/><path d="m300.838 338.84c-2.56 0-5.118-.976-7.071-2.929l-39.256-39.254c-11.38-11.38-11.38-29.897 0-41.277 11.38-11.378 29.898-11.38 41.277 0l5.05 5.05 5.051-5.05c11.378-11.378 29.896-11.38 41.276 0 11.381 11.38 11.381 29.897.001 41.277l-39.257 39.254c-1.953 1.952-4.512 2.929-7.071 2.929zm-25.688-72.004c-2.353 0-4.706.896-6.498 2.687-3.581 3.582-3.581 9.41.001 12.992l32.185 32.184 32.187-32.184c3.581-3.582 3.581-9.41-.001-12.992-3.583-3.583-9.411-3.582-12.994 0l-12.121 12.12c-3.904 3.906-10.235 3.904-14.142 0l-12.12-12.12c-1.792-1.792-4.144-2.687-6.497-2.687z"/><path d="m300.838 215.181c-2.56 0-5.118-.976-7.071-2.929l-39.256-39.254c-5.513-5.513-8.549-12.843-8.549-20.639s3.036-15.126 8.55-20.638c11.379-11.381 29.896-11.379 41.277 0l5.049 5.049 5.051-5.049c11.382-11.381 29.897-11.379 41.277 0 5.513 5.512 8.549 12.842 8.549 20.638s-3.036 15.126-8.549 20.639l-39.257 39.254c-1.953 1.952-4.512 2.929-7.071 2.929zm-25.689-72.003c-2.353 0-4.705.895-6.496 2.687-1.735 1.735-2.691 4.042-2.691 6.495 0 2.454.956 4.761 2.691 6.496l32.185 32.184 32.187-32.184c1.734-1.735 2.69-4.042 2.69-6.496 0-2.453-.956-4.76-2.69-6.495-3.584-3.581-9.412-3.583-12.994 0l-12.122 12.119c-3.904 3.906-10.236 3.906-14.141 0l-12.12-12.119c-1.793-1.792-4.145-2.687-6.499-2.687z"/></svg>