<svg height="496pt" viewBox="-15 0 495 496" width="496pt" xmlns="http://www.w3.org/2000/svg"><path d="m248.5 32 56 80h-32v-8c0-4.398438-3.601562-8-8-8h-24l-20.960938-32h-70.078124l-20.960938 32h-40.160156c.160156-.640625.160156-1.28125.160156-1.839844 0-3.441406-1.28125-6.640625-3.359375-9.121094l35.359375-53.039062zm0 0" fill="#aab2bd"/><path d="m336.5 392v32h-256v-32zm0 0" fill="#d3a06c"/><path d="m328.5 456c0 17.671875-14.328125 32-32 32s-32-14.328125-32-32 14.328125-32 32-32 32 14.328125 32 32zm0 0" fill="#969faa"/><path d="m152.5 456c0 17.671875-14.328125 32-32 32s-32-14.328125-32-32 14.328125-32 32-32 32 14.328125 32 32zm0 0" fill="#969faa"/><path d="m224.5 329.839844v62.160156h-32v-62.160156c4.238281 3.839844 9.839844 6.160156 16 6.160156s11.761719-2.320312 16-6.160156zm0 0" fill="#d3a06c"/><path d="m224.5 329.839844c-4.238281 3.839844-9.839844 6.160156-16 6.160156s-11.761719-2.320312-16-6.160156c-4.960938-4.320313-8-10.71875-8-17.839844 0-13.28125 10.71875-24 24-24s24 10.71875 24 24c0 7.121094-3.039062 13.519531-8 17.839844zm0 0" fill="#fcd770"/><path d="m272.5 208v32l-9.359375 5.839844-30.160156 18.878906-.480469-.71875v-40c0-4.398438-3.601562-8-8-8h-80c-4.398438 0-8 3.601562-8 8v56h-32v-64h-48l14.960938-56.238281 1.039062.238281h128l24-64h40c4.398438 0 8 3.601562 8 8zm0 0" fill="#e6e9ed"/><path d="m85.140625 85.039062c2.078125 2.480469 3.359375 5.679688 3.359375 9.121094 0 .558594 0 1.199219-.160156 1.839844 0 .640625-.160156 1.199219-.320313 1.761719l-16.558593 62-14.960938 56.238281h-32l14.558594-123.519531c.800781-7.121094 6.882812-12.480469 14-12.480469h21.28125c4.398437 0 8.238281 1.921875 10.800781 5.039062zm0 0" fill="#ccd1d9"/><path d="m456.5 16v32c0 4.398438-3.601562 8-8 8h-24v-48h24c4.398438 0 8 3.601562 8 8zm0 0" fill="#838f9b"/><path d="m424.5 88v176h-32v-176zm0 0" fill="#ccd1d9"/><path d="m392.5 8h32v48h-32zm0 0" fill="#838f9b"/><path d="m392.5 184v80l-40-40v-96l40-40zm0 0" fill="#969faa"/><path d="m392.5 8v48h-24c-4.398438 0-8-3.601562-8-8v-32c0-4.398438 3.601562-8 8-8zm0 0" fill="#838f9b"/><path d="m360.5 16v32h-16c-8.800781 0-16-7.199219-16-16 0-4.398438 1.761719-8.398438 4.71875-11.28125 2.882812-2.957031 6.882812-4.71875 11.28125-4.71875zm0 0" fill="#aab2bd"/><path d="m352.5 128v96h-32v-96zm0 0" fill="#fcd770"/><path d="m320.5 224v8c0 4.398438-3.601562 8-8 8h-40v-32h48zm0 0" fill="#dfb28b"/><path d="m272.5 176h48v32h-48zm0 0" fill="#cf9e76"/><path d="m272.5 144h48v32h-48zm0 0" fill="#dfb28b"/><path d="m320.5 128v16h-48v-32h40c4.398438 0 8 3.601562 8 8zm0 0" fill="#cf9e76"/><path d="m232.5 264 .480469.71875-24.480469 15.28125h-72v-56c0-4.398438 3.601562-8 8-8h80c4.398438 0 8 3.601562 8 8zm0 0" fill="#b4dd7f"/><path d="m224.5 96-24 64h-128l-1.039062-.238281 16.558593-62c.160157-.5625.320313-1.121094.320313-1.761719zm0 0" fill="#b4dd7f"/><path d="m112.5 344v16h-48c-8.800781 0-16-7.199219-16-16 0-4.398438 1.761719-8.398438 4.71875-11.28125 2.882812-2.957031 6.882812-4.71875 11.28125-4.71875h48zm0 0" fill="#969faa"/><g fill="#fcd770"><path d="m72.5 216h32v64h-32zm0 0"/><path d="m72.5 216v64h-32v-64zm0 0"/><path d="m40.5 216v64h-24c-4.398438 0-8-3.601562-8-8v-48c0-4.398438 3.601562-8 8-8zm0 0"/></g><path d="m112.5 448h16v16h-16zm0 0"/><path d="m288.5 448h16v16h-16zm0 0"/><path d="m448.5 0h-80c-5.894531 0-11 3.238281-13.777344 8h-10.222656c-10.414062 0-19.214844 6.710938-22.527344 16h-205.753906l-33.183594 49.777344c-2.671875-1.136719-5.597656-1.777344-8.679687-1.777344h-21.28125c-11.230469 0-20.679688 8.40625-21.988281 19.550781l-13.699219 116.449219h-.886719c-8.824219 0-16 7.175781-16 16v48c0 8.824219 7.175781 16 16 16h128v16c0 8.824219 7.175781 16 16 16h17.136719c1.261719 4.871094 3.648437 9.257812 6.863281 12.945312v3.054688h-64v-16h-56c-13.230469 0-24 10.769531-24 24s10.769531 24 24 24h56v-16h64v32h-112v48h16.207031c-5.078125 6.703125-8.207031 14.960938-8.207031 24 0 22.054688 17.945312 40 40 40s40-17.945312 40-40c0-9.039062-3.128906-17.296875-8.207031-24h112.40625c-5.070313 6.703125-8.199219 14.960938-8.199219 24 0 22.054688 17.945312 40 40 40s40-17.945312 40-40c0-9.039062-3.128906-17.296875-8.207031-24h16.207031v-48h-112v-51.054688c3.214844-3.679687 5.601562-8.074218 6.863281-12.945312h17.136719c8.824219 0 16-7.175781 16-16v-54.558594l2.296875-1.441406h37.703125c8.824219 0 16-7.175781 16-16h20.6875l40 40h43.3125v-192h-43.3125l-40 40h-20.6875c0-8.824219-7.175781-16-16-16h-3.832031l-44.800781-64h58.113281c3.304687 9.289062 12.105469 16 22.519531 16h10.222656c2.777344 4.761719 7.882813 8 13.777344 8h80c8.824219 0 16-7.175781 16-16v-32c0-8.824219-7.175781-16-16-16zm-344 352h-40c-4.40625 0-8-3.585938-8-8s3.59375-8 8-8h40zm108.457031-248-18 48h-113.113281l12.800781-48zm-69.640625-16 10.503906-16h61.359376l10.503906 16zm-96.335937 5.425781c.359375-3.097656 2.984375-5.425781 6.09375-5.425781h21.28125c3.382812 0 6.144531 2.761719 6.144531 6.152344 0 .527344-.070312 1.0625-.207031 1.574218l-29.9375 112.273438h-16.855469zm17.519531 130.574219v48h-16v-48zm-48 0h16v48h-16zm80 48h-16v-48h16zm-29.585938-64 10.664063-40h128.464844l24-64h34.457031v131.558594l-24 15v-26.558594c0-8.824219-7.175781-16-16-16h-80c-8.824219 0-16 7.175781-16 16v48h-16v-64zm141.585938 120c-8.824219 0-16-7.175781-16-16s7.175781-16 16-16 16 7.175781 16 16-7.175781 16-16 16zm-2.296875-56h-61.703125v-48h80v36.566406zm-45.703125 16h27.054688c-4.773438 4.167969-8.277344 9.679688-9.917969 16h-17.136719zm-16 168c0 13.230469-10.769531 24-24 24s-24-10.769531-24-24 10.769531-24 24-24 24 10.769531 24 24zm176 0c0 13.230469-10.769531 24-24 24s-24-10.769531-24-24 10.769531-24 24-24 24 10.769531 24 24zm8-40h-240v-16h240zm-128-32v-41.136719c2.574219.671875 5.222656 1.136719 8 1.136719s5.425781-.464844 8-1.136719v41.136719zm56-80h-17.136719c-2.597656-9.992188-9.839843-18.070312-19.34375-21.769531l36.480469-22.789063zm24-152h32v16h-32zm0 32h32v16h-32zm0 48v-16h32v16zm136 24h-16v-72h-16v60.6875l-24-24v-89.375l24-24v60.6875h16v-72h16zm-72-120v80h-16v-80zm-32 0h-32v-16h32zm-23.367188-32h-8.632812c0-8.824219-7.175781-16-16-16h-19.679688l-21-32h-78.640624l-21 32h-28.65625c-.269532-.929688-.527344-1.863281-.910157-2.734375l30.167969-45.265625h119.550781zm47.367188-72c0-4.414062 3.59375-8 8-8h8v16h-8c-4.40625 0-8-3.585938-8-8zm80-16v32h-16v-32zm-48 0h16v32h-16zm64 32v-32h16l.007812 32zm0 0"/><path d="m104.5 120h16v16h-16zm0 0"/><path d="m136.5 120h16v16h-16zm0 0"/><path d="m168.5 120h16v16h-16zm0 0"/><path d="m160.5 240h16v16h-16zm0 0"/><path d="m192.5 240h16v16h-16zm0 0"/></svg>