<svg height="512" viewBox="0 0 64 64" width="512" xmlns="http://www.w3.org/2000/svg"><g id="Filled_outline" data-name="Filled outline"><path d="m33 23a21.5 21.5 0 0 1 -3-10v-6h-16v6a21.5 21.5 0 0 1 -3 10z" fill="#cfdfe8"/><path d="m59 13h-9l-2-2h-4l-2 2h-12v-6h29a2 2 0 0 1 2 2v2a2 2 0 0 1 -2 2z" fill="#ad6327"/><path d="m36 53v-30h-28v30l-5 4h38z" fill="#d3843d"/><g fill="#66342e"><path d="m30 46h-2v-8a1 1 0 0 1 .293-.707l2.707-2.707v-11.586h2v12a1 1 0 0 1 -.293.707l-2.707 2.707z"/><path d="m16 49h-2v-4.586l-2.707-2.707a1 1 0 0 1 -.293-.707v-18h2v17.586l2.707 2.707a1 1 0 0 1 .293.707z"/><path d="m17 38h-2v-4a1 1 0 0 1 .293-.707l2.707-2.707v-7.586h2v8a1 1 0 0 1 -.293.707l-2.707 2.707z"/><path d="m26 39h-2v-3.586l-1.707-1.707a1 1 0 0 1 -.293-.707v-10h2v9.586l1.707 1.707a1 1 0 0 1 .293.707z"/><path d="m30 57h-2v-4.586l-3.707-3.707a1 1 0 0 1 -.293-.707v-3h2v2.586l3.707 3.707a1 1 0 0 1 .293.707z"/><path d="m19 57h-2v-4a1 1 0 0 1 .293-.707l2.707-2.707v-2.586h2v3a1 1 0 0 1 -.293.707l-2.707 2.707z"/><path d="m20 40h2v4h-2z"/></g><path d="m12.845 19a20.938 20.938 0 0 1 -1.845 4h22a20.938 20.938 0 0 1 -1.845-4z" fill="#bc3542"/><path d="m19 15h-2v-5h6v2h-4z" fill="#f4f4e6"/><path d="m25 10h2v2h-2z" fill="#f4f4e6"/><path d="m56 10h2v3h-2z" fill="#66342e"/><path d="m52 10h2v3h-2z" fill="#66342e"/><path d="m12 7h2a0 0 0 0 1 0 0v4a0 0 0 0 1 0 0h-2a2 2 0 0 1 -2-2 2 2 0 0 1 2-2z" fill="#ad6327"/><path d="m7 12.697h2v3.606h-2z" fill="#fcf05a" transform="matrix(.832 -.555 .555 .832 -6.7 6.873)"/><path d="m4 18h4v2h-4z" fill="#fcf05a"/><path d="m59 6h-47a3 3 0 0 0 0 6h1v1a20.625 20.625 0 0 1 -2.583 9h-2.417a1 1 0 0 0 -1 1v29.52l-4.625 3.7a1 1 0 0 0 .625 1.78h38a1 1 0 0 0 .625-1.781l-4.625-3.699v-29.52a1 1 0 0 0 -1-1h-2.416a21.144 21.144 0 0 1 -2.516-8h10.932a1 1 0 0 0 .707-.293l1.707-1.707h3.172l1.707 1.707a1 1 0 0 0 .707.293h9a3 3 0 0 0 3-3v-2a3 3 0 0 0 -3-3zm-47 4a1 1 0 0 1 0-2h1v2zm3-2h14v5a20.428 20.428 0 0 0 .793 5h-15.586a20.428 20.428 0 0 0 .793-5zm20 16v29a1 1 0 0 0 .375.781l2.774 2.219h-8.149v-4a1 1 0 0 0 -.293-.707l-3.707-3.707v-2.586h-2v3a1 1 0 0 0 .293.707l3.707 3.707v3.586h-9v-2.586l2.707-2.707a1 1 0 0 0 .293-.707v-3h-2v2.586l-2.707 2.707a1 1 0 0 0 -.293.707v3h-11.149l2.774-2.219a1 1 0 0 0 .375-.781v-29h2v17a1 1 0 0 0 .293.707l2.707 2.707v4.586h2v-5a1 1 0 0 0 -.293-.707l-2.707-2.707v-16.586h5v6.586l-2.707 2.707a1 1 0 0 0 -.293.707v4h2v-3.586l2.707-2.707a1 1 0 0 0 .293-.707v-7h2v9a1 1 0 0 0 .293.707l1.707 1.707v3.586h2v-4a1 1 0 0 0 -.293-.707l-1.707-1.707v-8.586h7v10.586l-2.707 2.707a1 1 0 0 0 -.293.707v8h2v-7.586l2.707-2.707a1 1 0 0 0 .293-.707v-11zm-22.315-2c.336-.681.619-1.349.865-2h16.9c.246.651.529 1.319.865 2zm47.315-11a1 1 0 0 1 -1 1h-1v-2h-2v2h-2v-2h-2v2h-1.586l-1.707-1.707a1 1 0 0 0 -.707-.293h-4a1 1 0 0 0 -.707.293l-1.707 1.707h-10.586v-4h28a1 1 0 0 1 1 1z"/><path d="m20 40h2v4h-2z"/><path d="m19 12h4v-2h-6v5h2z"/><path d="m25 10h2v2h-2z"/><path d="m7 12.697h2v3.606h-2z" transform="matrix(.832 -.555 .555 .832 -6.7 6.873)"/><path d="m4 18h4v2h-4z"/></g></svg>