<svg height="480pt" viewBox="0 0 480.00001 480" width="480pt" xmlns="http://www.w3.org/2000/svg"><path d="m301.335938 464-21.335938-64h-80l-21.335938 64h-26.664062v16h176v-16zm0 0" fill="#dedede"/><path d="m40 56c-17.671875 0-32 14.328125-32 32v248h464v-248c0-17.671875-14.328125-32-32-32zm0 0" fill="#4398d1"/><path d="m8 336v32c0 17.671875 14.328125 32 32 32h400c17.671875 0 32-14.328125 32-32v-32zm0 0" fill="#dedede"/><path d="m392 8h-304c-17.671875 0-32 14.328125-32 32v296h368v-296c0-17.671875-14.328125-32-32-32zm0 0" fill="#87ced9"/><path d="m256 184-56 32-8 72 72-8 32-56zm0 0" fill="#fdb62f"/><path d="m240 224c-8.835938 0-16 7.164062-16 16 .019531 1.382812.21875 2.757812.601562 4.089844l-38.257812 38.253906 11.3125 11.3125 38.253906-38.257812c1.332032.382812 2.707032.582031 4.089844.601562 8.835938 0 16-7.164062 16-16s-7.164062-16-16-16zm0 0" fill="#fd882f"/><path d="m256 184 40 40c36.941406-21.109375 69.167969-49.5625 94.695312-83.601562l77.703126-103.597657c2.339843-3.117187 3.601562-6.90625 3.601562-10.800781 0-9.941406-8.058594-18-18-18-3.894531 0-7.683594 1.261719-10.800781 3.601562l-103.597657 77.703126c-34.039062 25.527343-62.492187 57.753906-83.601562 94.695312zm0 0" fill="#8f583c"/><path d="m350.671875 131.617188-10.398437-12.191407c4.4375-3.773437 8.996093-7.414062 13.679687-10.921875l9.597656 12.800782c-4.398437 3.320312-8.691406 6.757812-12.878906 10.3125zm0 0" fill="#b37b5f"/><path d="m316.359375 166.535156-12.359375-10.136718c7.480469-9.152344 15.515625-17.835938 24.0625-26l11.035156 11.585937c-8.078125 7.707031-15.671875 15.90625-22.738281 24.550781zm0 0" fill="#b37b5f"/><path d="m267.007812 166.320312 46.671876 46.671876c4.519531-2.992188 8.949218-6.101563 13.296874-9.328126l-50.640624-50.640624c-3.222657 4.351562-6.332032 8.785156-9.328126 13.296874zm0 0" fill="#73442e"/><g fill="#5eb3d1"><path d="m88 40h16v16h-16zm0 0"/><path d="m120 40h16v16h-16zm0 0"/><path d="m152 40h16v16h-16zm0 0"/><path d="m88 80h208v16h-208zm0 0"/><path d="m152 120h104v16h-104zm0 0"/><path d="m88 160h144v16h-144zm0 0"/><path d="m88 200h88v16h-88zm0 0"/><path d="m88 240h80v16h-80zm0 0"/><path d="m88 280h80v16h-80zm0 0"/><path d="m360 200h32v16h-32zm0 0"/><path d="m312 240h80v16h-80zm0 0"/><path d="m296 280h96v16h-96zm0 0"/><path d="m88 120h48v16h-48zm0 0"/></g><path d="m288 424-8-24h-80l-8 24zm0 0" fill="#c7c7c7"/><path d="m56 312h368v24h-368zm0 0" fill="#71c4d1"/><path d="m460.800781 76c2.097657 3.652344 3.203125 7.789062 3.199219 12v240h-448v-240c-.003906-10.945312 7.394531-20.507812 17.992188-23.246094l-4-15.488281c-17.660157 4.5625-29.99609425 20.496094-29.992188 38.734375v280c.0273438 22.082031 17.917969 39.972656 40 40h148.902344l-18.664063 56h-18.238281v16h176v-16h-18.238281l-18.664063-56h148.902344c22.082031-.027344 39.972656-17.917969 40-40v-280c.003906-7.023438-1.84375-13.921875-5.359375-20zm-167.90625 388h-105.789062l18.664062-56h68.460938zm171.105469-96c0 13.253906-10.746094 24-24 24h-400c-13.253906 0-24-10.746094-24-24v-24h448zm0 0"/><path d="m454 0c-5.621094.0078125-11.089844 1.832031-15.59375 5.199219l-14.40625 10.800781c-7.566406-10.058594-19.414062-15.984375-32-16h-304c-22.082031.0273438-39.972656 17.917969-40 40v272h16v-272c0-13.253906 10.746094-24 24-24h304c7.523438.070312 14.574219 3.671875 19.039062 9.726562l-76.230468 57.175782c-34.328125 25.703125-63.097656 58.085937-84.578125 95.203125l-54.230469 30.949219c-2.226562 1.265624-3.714844 3.519531-4 6.066406l-8 72c-.25 2.269531.480469 4.539062 2.007812 6.234375 1.527344 1.695312 3.707032 2.660156 5.992188 2.644531.292969 0 .585938-.015625.878906-.046875l72-8c2.546875-.285156 4.800782-1.773437 6.066406-4l30.976563-54.199219c37.113281-21.476562 69.5-50.242187 95.199219-84.570312l18.878906-25.183594v192h16v-213.335938l42.800781-57.0625c5.90625-7.878906 6.859375-18.421874 2.453125-27.230468-4.402344-8.808594-13.40625-14.371094-23.253906-14.371094zm-181.257812 172.054688 35.203124 35.203124c-3.503906 2.292969-7.042968 4.558594-10.65625 6.71875l-15.632812-15.632812-15.632812-15.640625c2.160156-3.605469 4.425781-7.144531 6.71875-10.648437zm-13.671876 100.441406-45.285156 5.03125 22.125-22.128906c1.332032.382812 2.707032.582031 4.089844.601562 8.835938 0 16-7.164062 16-16s-7.164062-16-16-16-16 7.164062-16 16c.019531 1.382812.21875 2.757812.601562 4.089844l-22.128906 22.125 5.023438-45.285156 47.199218-26.953126 31.359376 31.359376zm202.929688-240.496094-77.703125 103.601562c-17.804687 23.785157-39.023437 44.8125-62.96875 62.398438l-39.335937-39.335938c17.582031-23.953124 38.609374-45.179687 62.398437-62.984374l103.609375-77.6875c3.980469-2.996094 9.5625-2.605469 13.085938.921874 3.523437 3.523438 3.914062 9.105469.914062 13.085938zm0 0"/><path d="m340.3125 119.425781 10.398438 12.191407c4.183593-3.554688 8.492187-6.992188 12.929687-10.3125l-9.601563-12.800782c-4.707031 3.507813-9.285156 7.148438-13.726562 10.921875zm0 0"/><path d="m304 156.398438 12.390625 10.136718c7.066406-8.632812 14.660156-16.820312 22.738281-24.519531l-11.066406-11.617187c-8.546875 8.164062-16.582031 16.847656-24.0625 26zm0 0"/><path d="m88 40h16v16h-16zm0 0"/><path d="m120 40h16v16h-16zm0 0"/><path d="m152 40h16v16h-16zm0 0"/><path d="m88 80h208v16h-208zm0 0"/><path d="m152 120h104v16h-104zm0 0"/><path d="m88 160h144v16h-144zm0 0"/><path d="m88 200h88v16h-88zm0 0"/><path d="m88 240h80v16h-80zm0 0"/><path d="m88 280h80v16h-80zm0 0"/><path d="m360 200h32v16h-32zm0 0"/><path d="m312 240h80v16h-80zm0 0"/><path d="m296 280h96v16h-96zm0 0"/><path d="m88 120h48v16h-48zm0 0"/></svg>